<mxfile host="app.diagrams.net" agent="Mozilla/5.0 (Windows NT 10.0; Win64; x64; rv:138.0) Gecko/20100101 Firefox/138.0" version="27.0.6">
  <diagram name="Página-1" id="7f4B3Y-akTW4V8ARh-Hn">
    <mxGraphModel dx="6684" dy="4796" grid="1" gridSize="10" guides="1" tooltips="1" connect="1" arrows="1" fold="1" page="1" pageScale="1" pageWidth="1200" pageHeight="1600" math="0" shadow="0">
      <root>
        <mxCell id="0" />
        <mxCell id="1" parent="0" />
        <mxCell id="LcZc_sEwQm5LV-d36QQi-3" style="edgeStyle=orthogonalEdgeStyle;rounded=0;orthogonalLoop=1;jettySize=auto;html=1;entryX=0.5;entryY=0;entryDx=0;entryDy=0;" parent="1" source="LcZc_sEwQm5LV-d36QQi-1" target="LcZc_sEwQm5LV-d36QQi-2" edge="1">
          <mxGeometry relative="1" as="geometry" />
        </mxCell>
        <mxCell id="LcZc_sEwQm5LV-d36QQi-1" value="Main" style="strokeWidth=2;html=1;shape=mxgraph.flowchart.start_1;whiteSpace=wrap;" parent="1" vertex="1">
          <mxGeometry x="1316.5" y="-482.53" width="100" height="60" as="geometry" />
        </mxCell>
        <mxCell id="LcZc_sEwQm5LV-d36QQi-2" value="&quot;Ingrese la cantidad de productos(máximo 5)&quot;" style="shape=parallelogram;html=1;strokeWidth=2;perimeter=parallelogramPerimeter;whiteSpace=wrap;rounded=1;arcSize=12;size=0.23;" parent="1" vertex="1">
          <mxGeometry x="1259" y="-352.53" width="215" height="60" as="geometry" />
        </mxCell>
        <mxCell id="LcZc_sEwQm5LV-d36QQi-5" style="edgeStyle=orthogonalEdgeStyle;rounded=0;orthogonalLoop=1;jettySize=auto;html=1;entryX=1;entryY=0.5;entryDx=0;entryDy=0;exitX=1;exitY=0.5;exitDx=0;exitDy=0;exitPerimeter=0;" parent="1" source="LcZc_sEwQm5LV-d36QQi-4" target="LcZc_sEwQm5LV-d36QQi-2" edge="1">
          <mxGeometry relative="1" as="geometry">
            <mxPoint x="1566.5" y="-342.53" as="targetPoint" />
            <mxPoint x="1476.5" y="-242.53" as="sourcePoint" />
            <Array as="points">
              <mxPoint x="1567.5" y="-202.53" />
              <mxPoint x="1567.5" y="-322.53" />
            </Array>
          </mxGeometry>
        </mxCell>
        <mxCell id="LcZc_sEwQm5LV-d36QQi-6" value="False" style="edgeLabel;html=1;align=center;verticalAlign=middle;resizable=0;points=[];" parent="LcZc_sEwQm5LV-d36QQi-5" vertex="1" connectable="0">
          <mxGeometry x="0.145" relative="1" as="geometry">
            <mxPoint x="-1" y="12" as="offset" />
          </mxGeometry>
        </mxCell>
        <mxCell id="LcZc_sEwQm5LV-d36QQi-9" style="edgeStyle=orthogonalEdgeStyle;rounded=0;orthogonalLoop=1;jettySize=auto;html=1;exitX=0.5;exitY=1;exitDx=0;exitDy=0;exitPerimeter=0;entryX=0.5;entryY=0;entryDx=0;entryDy=0;" parent="1" source="LcZc_sEwQm5LV-d36QQi-4" target="LcZc_sEwQm5LV-d36QQi-8" edge="1">
          <mxGeometry relative="1" as="geometry" />
        </mxCell>
        <mxCell id="C5i6v7xtvxDd-QpiHmQA-9" value="True" style="edgeLabel;html=1;align=center;verticalAlign=middle;resizable=0;points=[];" vertex="1" connectable="0" parent="LcZc_sEwQm5LV-d36QQi-9">
          <mxGeometry x="-0.08" y="1" relative="1" as="geometry">
            <mxPoint as="offset" />
          </mxGeometry>
        </mxCell>
        <mxCell id="LcZc_sEwQm5LV-d36QQi-4" value="Cantidad&amp;lt;=5" style="strokeWidth=2;html=1;shape=mxgraph.flowchart.decision;whiteSpace=wrap;" parent="1" vertex="1">
          <mxGeometry x="1316.5" y="-252.53" width="100" height="100" as="geometry" />
        </mxCell>
        <mxCell id="LcZc_sEwQm5LV-d36QQi-7" style="edgeStyle=orthogonalEdgeStyle;rounded=0;orthogonalLoop=1;jettySize=auto;html=1;exitX=0.5;exitY=1;exitDx=0;exitDy=0;entryX=0.5;entryY=0;entryDx=0;entryDy=0;entryPerimeter=0;" parent="1" source="LcZc_sEwQm5LV-d36QQi-2" target="LcZc_sEwQm5LV-d36QQi-4" edge="1">
          <mxGeometry relative="1" as="geometry" />
        </mxCell>
        <mxCell id="LcZc_sEwQm5LV-d36QQi-11" style="edgeStyle=orthogonalEdgeStyle;rounded=0;orthogonalLoop=1;jettySize=auto;html=1;entryX=0.5;entryY=0;entryDx=0;entryDy=0;entryPerimeter=0;" parent="1" source="LcZc_sEwQm5LV-d36QQi-8" target="C5i6v7xtvxDd-QpiHmQA-325" edge="1">
          <mxGeometry relative="1" as="geometry" />
        </mxCell>
        <mxCell id="LcZc_sEwQm5LV-d36QQi-8" value="&quot;Ingrese el tiempo total disponible(horas): &quot;" style="shape=parallelogram;html=1;strokeWidth=2;perimeter=parallelogramPerimeter;whiteSpace=wrap;rounded=1;arcSize=12;size=0.23;" parent="1" vertex="1">
          <mxGeometry x="1261.5" y="-102.53" width="210" height="60" as="geometry" />
        </mxCell>
        <mxCell id="LcZc_sEwQm5LV-d36QQi-32" style="edgeStyle=orthogonalEdgeStyle;rounded=0;orthogonalLoop=1;jettySize=auto;html=1;exitX=0.5;exitY=1;exitDx=0;exitDy=0;entryX=0.5;entryY=0;entryDx=0;entryDy=0;entryPerimeter=0;" parent="1" source="LcZc_sEwQm5LV-d36QQi-10" target="C5i6v7xtvxDd-QpiHmQA-333" edge="1">
          <mxGeometry relative="1" as="geometry" />
        </mxCell>
        <mxCell id="LcZc_sEwQm5LV-d36QQi-10" value="&quot;Ingrese los recursos totales disponibles:&quot;" style="shape=parallelogram;html=1;strokeWidth=2;perimeter=parallelogramPerimeter;whiteSpace=wrap;rounded=1;arcSize=12;size=0.23;" parent="1" vertex="1">
          <mxGeometry x="1200" y="180" width="330" height="60" as="geometry" />
        </mxCell>
        <mxCell id="LcZc_sEwQm5LV-d36QQi-28" style="edgeStyle=orthogonalEdgeStyle;rounded=0;orthogonalLoop=1;jettySize=auto;html=1;exitX=0.5;exitY=0;exitDx=0;exitDy=0;" parent="1" source="LcZc_sEwQm5LV-d36QQi-12" edge="1">
          <mxGeometry relative="1" as="geometry">
            <mxPoint x="1890" y="-270" as="targetPoint" />
            <Array as="points">
              <mxPoint x="2250" y="-270" />
              <mxPoint x="1890" y="-270" />
            </Array>
          </mxGeometry>
        </mxCell>
        <mxCell id="LcZc_sEwQm5LV-d36QQi-12" value="for(i=0;i&amp;lt;Cantidad;i++)" style="rounded=1;whiteSpace=wrap;html=1;absoluteArcSize=1;arcSize=14;strokeWidth=2;" parent="1" vertex="1">
          <mxGeometry x="2180" y="80" width="140" height="100" as="geometry" />
        </mxCell>
        <mxCell id="LcZc_sEwQm5LV-d36QQi-23" style="edgeStyle=orthogonalEdgeStyle;rounded=0;orthogonalLoop=1;jettySize=auto;html=1;exitX=0.5;exitY=1;exitDx=0;exitDy=0;entryX=0.5;entryY=0;entryDx=0;entryDy=0;entryPerimeter=0;" parent="1" source="LcZc_sEwQm5LV-d36QQi-14" target="C5i6v7xtvxDd-QpiHmQA-339" edge="1">
          <mxGeometry relative="1" as="geometry" />
        </mxCell>
        <mxCell id="LcZc_sEwQm5LV-d36QQi-14" value="Nombre de Producto i: " style="shape=parallelogram;html=1;strokeWidth=2;perimeter=parallelogramPerimeter;whiteSpace=wrap;rounded=1;arcSize=12;size=0.23;" parent="1" vertex="1">
          <mxGeometry x="1785" y="-245.53" width="200" height="60" as="geometry" />
        </mxCell>
        <mxCell id="LcZc_sEwQm5LV-d36QQi-24" style="edgeStyle=orthogonalEdgeStyle;rounded=0;orthogonalLoop=1;jettySize=auto;html=1;exitX=0.5;exitY=1;exitDx=0;exitDy=0;entryX=0.5;entryY=0;entryDx=0;entryDy=0;entryPerimeter=0;" parent="1" source="LcZc_sEwQm5LV-d36QQi-19" target="C5i6v7xtvxDd-QpiHmQA-349" edge="1">
          <mxGeometry relative="1" as="geometry" />
        </mxCell>
        <mxCell id="LcZc_sEwQm5LV-d36QQi-19" value="Precio de Producto i: " style="shape=parallelogram;html=1;strokeWidth=2;perimeter=parallelogramPerimeter;whiteSpace=wrap;rounded=1;arcSize=12;size=0.23;" parent="1" vertex="1">
          <mxGeometry x="1785" y="-3" width="200" height="60" as="geometry" />
        </mxCell>
        <mxCell id="LcZc_sEwQm5LV-d36QQi-25" style="edgeStyle=orthogonalEdgeStyle;rounded=0;orthogonalLoop=1;jettySize=auto;html=1;exitX=0.5;exitY=1;exitDx=0;exitDy=0;entryX=0.5;entryY=0;entryDx=0;entryDy=0;" parent="1" source="LcZc_sEwQm5LV-d36QQi-20" target="LcZc_sEwQm5LV-d36QQi-21" edge="1">
          <mxGeometry relative="1" as="geometry" />
        </mxCell>
        <mxCell id="LcZc_sEwQm5LV-d36QQi-20" value="Código de Producto i: " style="shape=parallelogram;html=1;strokeWidth=2;perimeter=parallelogramPerimeter;whiteSpace=wrap;rounded=1;arcSize=12;size=0.23;" parent="1" vertex="1">
          <mxGeometry x="1790" y="220" width="200" height="60" as="geometry" />
        </mxCell>
        <mxCell id="LcZc_sEwQm5LV-d36QQi-27" style="edgeStyle=orthogonalEdgeStyle;rounded=0;orthogonalLoop=1;jettySize=auto;html=1;exitX=0.5;exitY=1;exitDx=0;exitDy=0;entryX=0.5;entryY=0;entryDx=0;entryDy=0;" parent="1" source="LcZc_sEwQm5LV-d36QQi-21" target="LcZc_sEwQm5LV-d36QQi-22" edge="1">
          <mxGeometry relative="1" as="geometry" />
        </mxCell>
        <mxCell id="C5i6v7xtvxDd-QpiHmQA-364" value="False" style="edgeLabel;html=1;align=center;verticalAlign=middle;resizable=0;points=[];" vertex="1" connectable="0" parent="LcZc_sEwQm5LV-d36QQi-27">
          <mxGeometry x="0.6667" y="1" relative="1" as="geometry">
            <mxPoint as="offset" />
          </mxGeometry>
        </mxCell>
        <mxCell id="LcZc_sEwQm5LV-d36QQi-21" value="Cantidad demandada de Producto i: " style="shape=parallelogram;html=1;strokeWidth=2;perimeter=parallelogramPerimeter;whiteSpace=wrap;rounded=1;arcSize=12;size=0.23;" parent="1" vertex="1">
          <mxGeometry x="1750" y="300" width="280" height="60" as="geometry" />
        </mxCell>
        <mxCell id="LcZc_sEwQm5LV-d36QQi-30" style="edgeStyle=orthogonalEdgeStyle;rounded=0;orthogonalLoop=1;jettySize=auto;html=1;entryX=0.5;entryY=1;entryDx=0;entryDy=0;exitX=0.5;exitY=1;exitDx=0;exitDy=0;exitPerimeter=0;" parent="1" source="C5i6v7xtvxDd-QpiHmQA-366" target="LcZc_sEwQm5LV-d36QQi-12" edge="1">
          <mxGeometry relative="1" as="geometry">
            <Array as="points">
              <mxPoint x="1885" y="710" />
              <mxPoint x="2250" y="710" />
            </Array>
            <mxPoint x="2240" y="580" as="sourcePoint" />
          </mxGeometry>
        </mxCell>
        <mxCell id="C5i6v7xtvxDd-QpiHmQA-373" value="False" style="edgeLabel;html=1;align=center;verticalAlign=middle;resizable=0;points=[];" vertex="1" connectable="0" parent="LcZc_sEwQm5LV-d36QQi-30">
          <mxGeometry x="-0.9674" y="4" relative="1" as="geometry">
            <mxPoint as="offset" />
          </mxGeometry>
        </mxCell>
        <mxCell id="LcZc_sEwQm5LV-d36QQi-22" value="Tiempo por unidad de Producto i: " style="shape=parallelogram;html=1;strokeWidth=2;perimeter=parallelogramPerimeter;whiteSpace=wrap;rounded=1;arcSize=12;size=0.23;" parent="1" vertex="1">
          <mxGeometry x="1755" y="510" width="270" height="60" as="geometry" />
        </mxCell>
        <mxCell id="LcZc_sEwQm5LV-d36QQi-31" value="Función IngresarProductos (productos,Cantidad)" style="rounded=1;whiteSpace=wrap;html=1;absoluteArcSize=1;arcSize=14;strokeWidth=2;" parent="1" vertex="1">
          <mxGeometry x="1280" y="430" width="170" height="100" as="geometry" />
        </mxCell>
        <mxCell id="LcZc_sEwQm5LV-d36QQi-34" style="edgeStyle=orthogonalEdgeStyle;rounded=0;orthogonalLoop=1;jettySize=auto;html=1;entryX=0.5;entryY=0;entryDx=0;entryDy=0;" parent="1" target="LcZc_sEwQm5LV-d36QQi-14" edge="1">
          <mxGeometry relative="1" as="geometry">
            <mxPoint x="1885" y="-300.53" as="sourcePoint" />
          </mxGeometry>
        </mxCell>
        <mxCell id="LcZc_sEwQm5LV-d36QQi-38" style="edgeStyle=orthogonalEdgeStyle;rounded=0;orthogonalLoop=1;jettySize=auto;html=1;" parent="1" source="LcZc_sEwQm5LV-d36QQi-35" target="LcZc_sEwQm5LV-d36QQi-37" edge="1">
          <mxGeometry relative="1" as="geometry" />
        </mxCell>
        <mxCell id="LcZc_sEwQm5LV-d36QQi-35" value="&lt;div&gt;&quot;Productos Ingresados&quot;&lt;/div&gt;" style="strokeWidth=2;html=1;shape=mxgraph.flowchart.display;whiteSpace=wrap;" parent="1" vertex="1">
          <mxGeometry x="1305" y="570" width="120" height="60" as="geometry" />
        </mxCell>
        <mxCell id="LcZc_sEwQm5LV-d36QQi-36" style="edgeStyle=orthogonalEdgeStyle;rounded=0;orthogonalLoop=1;jettySize=auto;html=1;entryX=0.5;entryY=0;entryDx=0;entryDy=0;entryPerimeter=0;" parent="1" source="LcZc_sEwQm5LV-d36QQi-31" target="LcZc_sEwQm5LV-d36QQi-35" edge="1">
          <mxGeometry relative="1" as="geometry" />
        </mxCell>
        <mxCell id="LcZc_sEwQm5LV-d36QQi-37" value="Función MostrarProductos (productos,Cantidad)" style="rounded=1;whiteSpace=wrap;html=1;absoluteArcSize=1;arcSize=14;strokeWidth=2;" parent="1" vertex="1">
          <mxGeometry x="1282.5" y="670" width="165" height="100" as="geometry" />
        </mxCell>
        <mxCell id="LcZc_sEwQm5LV-d36QQi-44" style="edgeStyle=orthogonalEdgeStyle;rounded=0;orthogonalLoop=1;jettySize=auto;html=1;" parent="1" source="LcZc_sEwQm5LV-d36QQi-40" edge="1">
          <mxGeometry relative="1" as="geometry">
            <mxPoint x="2500" y="-13.000000000000002" as="targetPoint" />
            <Array as="points">
              <mxPoint x="2750" y="-13.000000000000002" />
            </Array>
          </mxGeometry>
        </mxCell>
        <mxCell id="LcZc_sEwQm5LV-d36QQi-40" value="for(i=0;i&amp;lt;Cantidad;i++)" style="rounded=1;whiteSpace=wrap;html=1;absoluteArcSize=1;arcSize=14;strokeWidth=2;" parent="1" vertex="1">
          <mxGeometry x="2680" y="72.00000000000003" width="140" height="100" as="geometry" />
        </mxCell>
        <mxCell id="LcZc_sEwQm5LV-d36QQi-43" style="edgeStyle=orthogonalEdgeStyle;rounded=0;orthogonalLoop=1;jettySize=auto;html=1;exitX=0.5;exitY=1;exitDx=0;exitDy=0;exitPerimeter=0;entryX=0.5;entryY=1;entryDx=0;entryDy=0;" parent="1" source="LcZc_sEwQm5LV-d36QQi-41" target="LcZc_sEwQm5LV-d36QQi-40" edge="1">
          <mxGeometry relative="1" as="geometry">
            <Array as="points">
              <mxPoint x="2498" y="321.03" />
              <mxPoint x="2750" y="321.03" />
            </Array>
          </mxGeometry>
        </mxCell>
        <mxCell id="LcZc_sEwQm5LV-d36QQi-41" value="&quot;i | nombre&lt;br&gt;Precio: | Codigo: | Cantidad: | Tiempo/u:&amp;nbsp;&amp;nbsp; |&quot;" style="strokeWidth=2;html=1;shape=mxgraph.flowchart.display;whiteSpace=wrap;" parent="1" vertex="1">
          <mxGeometry x="2400" y="42" width="195" height="145" as="geometry" />
        </mxCell>
        <mxCell id="LcZc_sEwQm5LV-d36QQi-42" style="edgeStyle=orthogonalEdgeStyle;rounded=0;orthogonalLoop=1;jettySize=auto;html=1;entryX=0.5;entryY=0;entryDx=0;entryDy=0;entryPerimeter=0;" parent="1" target="LcZc_sEwQm5LV-d36QQi-41" edge="1">
          <mxGeometry relative="1" as="geometry">
            <mxPoint x="2497.5" y="-58" as="sourcePoint" />
          </mxGeometry>
        </mxCell>
        <mxCell id="C5i6v7xtvxDd-QpiHmQA-8" style="edgeStyle=orthogonalEdgeStyle;rounded=0;orthogonalLoop=1;jettySize=auto;html=1;entryX=0.5;entryY=0;entryDx=0;entryDy=0;" edge="1" parent="1" source="C5i6v7xtvxDd-QpiHmQA-1" target="C5i6v7xtvxDd-QpiHmQA-7">
          <mxGeometry relative="1" as="geometry" />
        </mxCell>
        <mxCell id="C5i6v7xtvxDd-QpiHmQA-1" value="--- Menu ---&lt;br&gt;1. Buscar producto por codigo o por nombre&lt;br&gt;2. Mostrar todos los productos&lt;br&gt;&lt;div&gt;3. Editar producto ( Nombre - Codigo - Tiempo de Fabricacion - Cantidad de Producto - Precio)&lt;/div&gt;&lt;div&gt;4. Eliminar algun producto por codigo&lt;/div&gt;&lt;div&gt;5. Verificar si cumple con la demanda (horas - recursos)&lt;/div&gt;&lt;div&gt;6. Salir&lt;/div&gt;" style="strokeWidth=2;html=1;shape=mxgraph.flowchart.display;whiteSpace=wrap;" vertex="1" parent="1">
          <mxGeometry x="1151.25" y="840" width="427.5" height="200" as="geometry" />
        </mxCell>
        <mxCell id="C5i6v7xtvxDd-QpiHmQA-2" style="edgeStyle=orthogonalEdgeStyle;rounded=0;orthogonalLoop=1;jettySize=auto;html=1;entryX=0.5;entryY=0;entryDx=0;entryDy=0;entryPerimeter=0;" edge="1" parent="1" source="LcZc_sEwQm5LV-d36QQi-37" target="C5i6v7xtvxDd-QpiHmQA-1">
          <mxGeometry relative="1" as="geometry" />
        </mxCell>
        <mxCell id="C5i6v7xtvxDd-QpiHmQA-3" value="IngresarProductos" style="strokeWidth=2;html=1;shape=mxgraph.flowchart.start_2;whiteSpace=wrap;" vertex="1" parent="1">
          <mxGeometry x="1825" y="-407.53" width="120" height="117" as="geometry" />
        </mxCell>
        <mxCell id="C5i6v7xtvxDd-QpiHmQA-4" value="MostrarProductos" style="strokeWidth=2;html=1;shape=mxgraph.flowchart.start_2;whiteSpace=wrap;" vertex="1" parent="1">
          <mxGeometry x="2437.5" y="-180" width="120" height="117" as="geometry" />
        </mxCell>
        <mxCell id="C5i6v7xtvxDd-QpiHmQA-6" style="edgeStyle=orthogonalEdgeStyle;rounded=0;orthogonalLoop=1;jettySize=auto;html=1;" edge="1" parent="1" source="C5i6v7xtvxDd-QpiHmQA-5">
          <mxGeometry relative="1" as="geometry">
            <mxPoint x="1370" y="800" as="targetPoint" />
            <Array as="points">
              <mxPoint x="1930" y="800" />
            </Array>
          </mxGeometry>
        </mxCell>
        <mxCell id="C5i6v7xtvxDd-QpiHmQA-5" value="while opcion!=6" style="rounded=1;whiteSpace=wrap;html=1;absoluteArcSize=1;arcSize=14;strokeWidth=2;" vertex="1" parent="1">
          <mxGeometry x="1880" y="910" width="100" height="100" as="geometry" />
        </mxCell>
        <mxCell id="C5i6v7xtvxDd-QpiHmQA-7" value="&quot;Seleccione una opcion: &quot;" style="shape=parallelogram;html=1;strokeWidth=2;perimeter=parallelogramPerimeter;whiteSpace=wrap;rounded=1;arcSize=12;size=0.23;" vertex="1" parent="1">
          <mxGeometry x="1265" y="1080" width="200" height="70" as="geometry" />
        </mxCell>
        <mxCell id="C5i6v7xtvxDd-QpiHmQA-15" value="" style="edgeStyle=orthogonalEdgeStyle;rounded=0;orthogonalLoop=1;jettySize=auto;html=1;" edge="1" parent="1" source="C5i6v7xtvxDd-QpiHmQA-10" target="C5i6v7xtvxDd-QpiHmQA-14">
          <mxGeometry relative="1" as="geometry" />
        </mxCell>
        <mxCell id="C5i6v7xtvxDd-QpiHmQA-28" value="1" style="edgeLabel;html=1;align=center;verticalAlign=middle;resizable=0;points=[];" vertex="1" connectable="0" parent="C5i6v7xtvxDd-QpiHmQA-15">
          <mxGeometry x="0.7869" y="-5" relative="1" as="geometry">
            <mxPoint y="1" as="offset" />
          </mxGeometry>
        </mxCell>
        <mxCell id="C5i6v7xtvxDd-QpiHmQA-17" value="" style="edgeStyle=orthogonalEdgeStyle;rounded=0;orthogonalLoop=1;jettySize=auto;html=1;" edge="1" parent="1" source="C5i6v7xtvxDd-QpiHmQA-10" target="C5i6v7xtvxDd-QpiHmQA-16">
          <mxGeometry relative="1" as="geometry" />
        </mxCell>
        <mxCell id="C5i6v7xtvxDd-QpiHmQA-29" value="2" style="edgeLabel;html=1;align=center;verticalAlign=middle;resizable=0;points=[];" vertex="1" connectable="0" parent="C5i6v7xtvxDd-QpiHmQA-17">
          <mxGeometry x="0.6458" y="-1" relative="1" as="geometry">
            <mxPoint y="1" as="offset" />
          </mxGeometry>
        </mxCell>
        <mxCell id="C5i6v7xtvxDd-QpiHmQA-19" value="" style="edgeStyle=orthogonalEdgeStyle;rounded=0;orthogonalLoop=1;jettySize=auto;html=1;entryX=0.5;entryY=0;entryDx=0;entryDy=0;entryPerimeter=0;" edge="1" parent="1" source="C5i6v7xtvxDd-QpiHmQA-10" target="C5i6v7xtvxDd-QpiHmQA-36">
          <mxGeometry relative="1" as="geometry">
            <mxPoint x="1810" y="1340" as="targetPoint" />
          </mxGeometry>
        </mxCell>
        <mxCell id="C5i6v7xtvxDd-QpiHmQA-35" value="Else" style="edgeLabel;html=1;align=center;verticalAlign=middle;resizable=0;points=[];" vertex="1" connectable="0" parent="C5i6v7xtvxDd-QpiHmQA-19">
          <mxGeometry x="0.8073" y="2" relative="1" as="geometry">
            <mxPoint y="1" as="offset" />
          </mxGeometry>
        </mxCell>
        <mxCell id="C5i6v7xtvxDd-QpiHmQA-21" value="" style="edgeStyle=orthogonalEdgeStyle;rounded=0;orthogonalLoop=1;jettySize=auto;html=1;entryX=0.5;entryY=0;entryDx=0;entryDy=0;entryPerimeter=0;" edge="1" parent="1" source="C5i6v7xtvxDd-QpiHmQA-10" target="C5i6v7xtvxDd-QpiHmQA-37">
          <mxGeometry relative="1" as="geometry">
            <mxPoint x="1660" y="1340" as="targetPoint" />
          </mxGeometry>
        </mxCell>
        <mxCell id="C5i6v7xtvxDd-QpiHmQA-34" value="6" style="edgeLabel;html=1;align=center;verticalAlign=middle;resizable=0;points=[];" vertex="1" connectable="0" parent="C5i6v7xtvxDd-QpiHmQA-21">
          <mxGeometry x="0.7191" y="2" relative="1" as="geometry">
            <mxPoint as="offset" />
          </mxGeometry>
        </mxCell>
        <mxCell id="C5i6v7xtvxDd-QpiHmQA-23" value="" style="edgeStyle=orthogonalEdgeStyle;rounded=0;orthogonalLoop=1;jettySize=auto;html=1;" edge="1" parent="1" source="C5i6v7xtvxDd-QpiHmQA-10" target="C5i6v7xtvxDd-QpiHmQA-22">
          <mxGeometry relative="1" as="geometry" />
        </mxCell>
        <mxCell id="C5i6v7xtvxDd-QpiHmQA-32" value="3" style="edgeLabel;html=1;align=center;verticalAlign=middle;resizable=0;points=[];" vertex="1" connectable="0" parent="C5i6v7xtvxDd-QpiHmQA-23">
          <mxGeometry x="0.4286" y="3" relative="1" as="geometry">
            <mxPoint as="offset" />
          </mxGeometry>
        </mxCell>
        <mxCell id="C5i6v7xtvxDd-QpiHmQA-26" style="edgeStyle=orthogonalEdgeStyle;rounded=0;orthogonalLoop=1;jettySize=auto;html=1;entryX=0.5;entryY=0;entryDx=0;entryDy=0;" edge="1" parent="1" source="C5i6v7xtvxDd-QpiHmQA-10" target="C5i6v7xtvxDd-QpiHmQA-25">
          <mxGeometry relative="1" as="geometry" />
        </mxCell>
        <mxCell id="C5i6v7xtvxDd-QpiHmQA-33" value="5" style="edgeLabel;html=1;align=center;verticalAlign=middle;resizable=0;points=[];" vertex="1" connectable="0" parent="C5i6v7xtvxDd-QpiHmQA-26">
          <mxGeometry x="0.4592" y="1" relative="1" as="geometry">
            <mxPoint as="offset" />
          </mxGeometry>
        </mxCell>
        <mxCell id="C5i6v7xtvxDd-QpiHmQA-27" style="edgeStyle=orthogonalEdgeStyle;rounded=0;orthogonalLoop=1;jettySize=auto;html=1;entryX=0.5;entryY=0;entryDx=0;entryDy=0;" edge="1" parent="1" source="C5i6v7xtvxDd-QpiHmQA-10" target="C5i6v7xtvxDd-QpiHmQA-24">
          <mxGeometry relative="1" as="geometry" />
        </mxCell>
        <mxCell id="C5i6v7xtvxDd-QpiHmQA-31" value="4" style="edgeLabel;html=1;align=center;verticalAlign=middle;resizable=0;points=[];" vertex="1" connectable="0" parent="C5i6v7xtvxDd-QpiHmQA-27">
          <mxGeometry x="-0.4" y="-1" relative="1" as="geometry">
            <mxPoint as="offset" />
          </mxGeometry>
        </mxCell>
        <mxCell id="C5i6v7xtvxDd-QpiHmQA-10" value="Opcion=" style="strokeWidth=2;html=1;shape=mxgraph.flowchart.decision;whiteSpace=wrap;" vertex="1" parent="1">
          <mxGeometry x="1297.5" y="1180" width="135" height="120" as="geometry" />
        </mxCell>
        <mxCell id="C5i6v7xtvxDd-QpiHmQA-11" style="edgeStyle=orthogonalEdgeStyle;rounded=0;orthogonalLoop=1;jettySize=auto;html=1;exitX=0.5;exitY=1;exitDx=0;exitDy=0;entryX=0.5;entryY=0;entryDx=0;entryDy=0;entryPerimeter=0;" edge="1" parent="1" source="C5i6v7xtvxDd-QpiHmQA-7" target="C5i6v7xtvxDd-QpiHmQA-10">
          <mxGeometry relative="1" as="geometry" />
        </mxCell>
        <mxCell id="C5i6v7xtvxDd-QpiHmQA-14" value="Función BuscarProducto (Productos, Cantidad)" style="rounded=1;whiteSpace=wrap;html=1;strokeWidth=2;" vertex="1" parent="1">
          <mxGeometry x="820" y="1340" width="150" height="80" as="geometry" />
        </mxCell>
        <mxCell id="C5i6v7xtvxDd-QpiHmQA-16" value="Función MostrarProductos (Productos, Cantidad)" style="rounded=1;whiteSpace=wrap;html=1;strokeWidth=2;" vertex="1" parent="1">
          <mxGeometry x="1000" y="1340" width="140" height="80" as="geometry" />
        </mxCell>
        <mxCell id="C5i6v7xtvxDd-QpiHmQA-22" value="Función EditarProducto (Productos, Cantidad)" style="rounded=1;whiteSpace=wrap;html=1;strokeWidth=2;" vertex="1" parent="1">
          <mxGeometry x="1151.25" y="1335" width="137.5" height="90" as="geometry" />
        </mxCell>
        <mxCell id="C5i6v7xtvxDd-QpiHmQA-39" style="edgeStyle=orthogonalEdgeStyle;rounded=0;orthogonalLoop=1;jettySize=auto;html=1;entryX=0.5;entryY=1;entryDx=0;entryDy=0;" edge="1" parent="1" source="C5i6v7xtvxDd-QpiHmQA-24" target="C5i6v7xtvxDd-QpiHmQA-5">
          <mxGeometry relative="1" as="geometry">
            <Array as="points">
              <mxPoint x="1365" y="1580" />
              <mxPoint x="1930" y="1580" />
            </Array>
          </mxGeometry>
        </mxCell>
        <mxCell id="C5i6v7xtvxDd-QpiHmQA-46" style="edgeStyle=orthogonalEdgeStyle;rounded=0;orthogonalLoop=1;jettySize=auto;html=1;entryX=0.5;entryY=0;entryDx=0;entryDy=0;entryPerimeter=0;" edge="1" parent="1" source="C5i6v7xtvxDd-QpiHmQA-24" target="C5i6v7xtvxDd-QpiHmQA-47">
          <mxGeometry relative="1" as="geometry">
            <mxPoint x="1365" y="1620" as="targetPoint" />
          </mxGeometry>
        </mxCell>
        <mxCell id="C5i6v7xtvxDd-QpiHmQA-24" value="Función EliminarProducto (productos, &amp;amp;cantidad,eliminados,&amp;amp;eliminadosCount)" style="rounded=1;whiteSpace=wrap;html=1;strokeWidth=2;" vertex="1" parent="1">
          <mxGeometry x="1246.25" y="1450" width="237.5" height="80" as="geometry" />
        </mxCell>
        <mxCell id="C5i6v7xtvxDd-QpiHmQA-25" value="Función CalcularDemanda (productos, cantidad, TiempoDisponible, RecursosDisponibles)" style="rounded=1;whiteSpace=wrap;html=1;strokeWidth=2;" vertex="1" parent="1">
          <mxGeometry x="1450" y="1340" width="160" height="100" as="geometry" />
        </mxCell>
        <mxCell id="C5i6v7xtvxDd-QpiHmQA-36" value="&quot;Opcion no valida. Intente de nuevo&quot;" style="strokeWidth=2;html=1;shape=mxgraph.flowchart.display;whiteSpace=wrap;" vertex="1" parent="1">
          <mxGeometry x="1765" y="1345" width="130" height="80" as="geometry" />
        </mxCell>
        <mxCell id="C5i6v7xtvxDd-QpiHmQA-37" value="&quot;Gracias por usar el programa. Adiós! :)&quot;" style="strokeWidth=2;html=1;shape=mxgraph.flowchart.display;whiteSpace=wrap;" vertex="1" parent="1">
          <mxGeometry x="1620" y="1340" width="130" height="80" as="geometry" />
        </mxCell>
        <mxCell id="C5i6v7xtvxDd-QpiHmQA-40" value="" style="endArrow=none;html=1;rounded=0;entryX=0.5;entryY=1;entryDx=0;entryDy=0;exitX=0.5;exitY=1;exitDx=0;exitDy=0;" edge="1" parent="1" source="C5i6v7xtvxDd-QpiHmQA-24" target="C5i6v7xtvxDd-QpiHmQA-25">
          <mxGeometry width="50" height="50" relative="1" as="geometry">
            <mxPoint x="1370" y="1560" as="sourcePoint" />
            <mxPoint x="1450" y="1310" as="targetPoint" />
            <Array as="points">
              <mxPoint x="1365" y="1560" />
              <mxPoint x="1530" y="1560" />
            </Array>
          </mxGeometry>
        </mxCell>
        <mxCell id="C5i6v7xtvxDd-QpiHmQA-41" value="" style="endArrow=none;html=1;rounded=0;entryX=0.5;entryY=1;entryDx=0;entryDy=0;entryPerimeter=0;exitX=0.5;exitY=1;exitDx=0;exitDy=0;" edge="1" parent="1" source="C5i6v7xtvxDd-QpiHmQA-24" target="C5i6v7xtvxDd-QpiHmQA-37">
          <mxGeometry width="50" height="50" relative="1" as="geometry">
            <mxPoint x="1520" y="1560" as="sourcePoint" />
            <mxPoint x="1710" y="1440" as="targetPoint" />
            <Array as="points">
              <mxPoint x="1365" y="1560" />
              <mxPoint x="1685" y="1560" />
            </Array>
          </mxGeometry>
        </mxCell>
        <mxCell id="C5i6v7xtvxDd-QpiHmQA-42" value="" style="endArrow=none;html=1;rounded=0;entryX=0.5;entryY=1;entryDx=0;entryDy=0;entryPerimeter=0;exitX=0.5;exitY=1;exitDx=0;exitDy=0;" edge="1" parent="1" source="C5i6v7xtvxDd-QpiHmQA-24" target="C5i6v7xtvxDd-QpiHmQA-36">
          <mxGeometry width="50" height="50" relative="1" as="geometry">
            <mxPoint x="1640" y="1570" as="sourcePoint" />
            <mxPoint x="1810" y="1450" as="targetPoint" />
            <Array as="points">
              <mxPoint x="1365" y="1560" />
              <mxPoint x="1830" y="1560" />
            </Array>
          </mxGeometry>
        </mxCell>
        <mxCell id="C5i6v7xtvxDd-QpiHmQA-43" value="" style="endArrow=none;html=1;rounded=0;entryX=0.5;entryY=1;entryDx=0;entryDy=0;exitX=0.5;exitY=1;exitDx=0;exitDy=0;" edge="1" parent="1" source="C5i6v7xtvxDd-QpiHmQA-24" target="C5i6v7xtvxDd-QpiHmQA-22">
          <mxGeometry width="50" height="50" relative="1" as="geometry">
            <mxPoint x="1730" y="1560" as="sourcePoint" />
            <mxPoint x="1895" y="1470" as="targetPoint" />
            <Array as="points">
              <mxPoint x="1365" y="1560" />
              <mxPoint x="1220" y="1560" />
            </Array>
          </mxGeometry>
        </mxCell>
        <mxCell id="C5i6v7xtvxDd-QpiHmQA-44" value="" style="endArrow=none;html=1;rounded=0;entryX=0.5;entryY=1;entryDx=0;entryDy=0;exitX=0.5;exitY=1;exitDx=0;exitDy=0;" edge="1" parent="1" source="C5i6v7xtvxDd-QpiHmQA-24" target="C5i6v7xtvxDd-QpiHmQA-16">
          <mxGeometry width="50" height="50" relative="1" as="geometry">
            <mxPoint x="1215" y="1530" as="sourcePoint" />
            <mxPoint x="1070" y="1425" as="targetPoint" />
            <Array as="points">
              <mxPoint x="1365" y="1560" />
              <mxPoint x="1215" y="1560" />
              <mxPoint x="1070" y="1560" />
            </Array>
          </mxGeometry>
        </mxCell>
        <mxCell id="C5i6v7xtvxDd-QpiHmQA-45" value="" style="endArrow=none;html=1;rounded=0;entryX=0.4;entryY=1.004;entryDx=0;entryDy=0;exitX=0.5;exitY=1;exitDx=0;exitDy=0;entryPerimeter=0;" edge="1" parent="1" source="C5i6v7xtvxDd-QpiHmQA-24" target="C5i6v7xtvxDd-QpiHmQA-14">
          <mxGeometry width="50" height="50" relative="1" as="geometry">
            <mxPoint x="1125" y="1575" as="sourcePoint" />
            <mxPoint x="980" y="1470" as="targetPoint" />
            <Array as="points">
              <mxPoint x="1365" y="1560" />
              <mxPoint x="880" y="1560" />
            </Array>
          </mxGeometry>
        </mxCell>
        <mxCell id="C5i6v7xtvxDd-QpiHmQA-47" value="End" style="strokeWidth=2;html=1;shape=mxgraph.flowchart.start_2;whiteSpace=wrap;" vertex="1" parent="1">
          <mxGeometry x="1315" y="1630" width="100" height="100" as="geometry" />
        </mxCell>
        <mxCell id="C5i6v7xtvxDd-QpiHmQA-55" value="End" style="strokeWidth=2;html=1;shape=mxgraph.flowchart.start_2;whiteSpace=wrap;" vertex="1" parent="1">
          <mxGeometry x="2065" y="770" width="100" height="100" as="geometry" />
        </mxCell>
        <mxCell id="C5i6v7xtvxDd-QpiHmQA-56" value="" style="endArrow=classic;html=1;rounded=0;entryX=0.5;entryY=0;entryDx=0;entryDy=0;entryPerimeter=0;" edge="1" parent="1" target="C5i6v7xtvxDd-QpiHmQA-55">
          <mxGeometry width="50" height="50" relative="1" as="geometry">
            <mxPoint x="2115" y="710" as="sourcePoint" />
            <mxPoint x="2165" y="635" as="targetPoint" />
          </mxGeometry>
        </mxCell>
        <mxCell id="C5i6v7xtvxDd-QpiHmQA-57" value="End" style="strokeWidth=2;html=1;shape=mxgraph.flowchart.start_2;whiteSpace=wrap;" vertex="1" parent="1">
          <mxGeometry x="2570" y="391.03" width="100" height="100" as="geometry" />
        </mxCell>
        <mxCell id="C5i6v7xtvxDd-QpiHmQA-96" value="" style="endArrow=classic;html=1;rounded=0;entryX=0.5;entryY=0;entryDx=0;entryDy=0;entryPerimeter=0;" edge="1" parent="1">
          <mxGeometry width="50" height="50" relative="1" as="geometry">
            <mxPoint x="2619.33" y="321.03" as="sourcePoint" />
            <mxPoint x="2619.33" y="391.03" as="targetPoint" />
          </mxGeometry>
        </mxCell>
        <mxCell id="C5i6v7xtvxDd-QpiHmQA-139" style="edgeStyle=orthogonalEdgeStyle;rounded=0;orthogonalLoop=1;jettySize=auto;html=1;entryX=0.5;entryY=0;entryDx=0;entryDy=0;" edge="1" parent="1" source="C5i6v7xtvxDd-QpiHmQA-140" target="C5i6v7xtvxDd-QpiHmQA-141">
          <mxGeometry relative="1" as="geometry" />
        </mxCell>
        <mxCell id="C5i6v7xtvxDd-QpiHmQA-140" value="BuscarProducto" style="strokeWidth=2;html=1;shape=mxgraph.flowchart.start_2;whiteSpace=wrap;" vertex="1" parent="1">
          <mxGeometry x="510" y="1360" width="100" height="100" as="geometry" />
        </mxCell>
        <mxCell id="C5i6v7xtvxDd-QpiHmQA-141" value="&lt;div&gt;&quot;Si desea buscar por codigo presione (1)&lt;/div&gt;&lt;div&gt;Si desea buscar por nombre presione (2)&quot;&lt;/div&gt;" style="shape=parallelogram;html=1;strokeWidth=2;perimeter=parallelogramPerimeter;whiteSpace=wrap;rounded=1;arcSize=12;size=0.23;" vertex="1" parent="1">
          <mxGeometry x="395" y="1531.03" width="330" height="110" as="geometry" />
        </mxCell>
        <mxCell id="C5i6v7xtvxDd-QpiHmQA-142" style="edgeStyle=orthogonalEdgeStyle;rounded=0;orthogonalLoop=1;jettySize=auto;html=1;entryX=0.5;entryY=0;entryDx=0;entryDy=0;" edge="1" parent="1" source="C5i6v7xtvxDd-QpiHmQA-146" target="C5i6v7xtvxDd-QpiHmQA-148">
          <mxGeometry relative="1" as="geometry" />
        </mxCell>
        <mxCell id="C5i6v7xtvxDd-QpiHmQA-143" value="1" style="edgeLabel;html=1;align=center;verticalAlign=middle;resizable=0;points=[];" vertex="1" connectable="0" parent="C5i6v7xtvxDd-QpiHmQA-142">
          <mxGeometry x="0.4466" relative="1" as="geometry">
            <mxPoint as="offset" />
          </mxGeometry>
        </mxCell>
        <mxCell id="C5i6v7xtvxDd-QpiHmQA-144" style="edgeStyle=orthogonalEdgeStyle;rounded=0;orthogonalLoop=1;jettySize=auto;html=1;entryX=0.5;entryY=0;entryDx=0;entryDy=0;" edge="1" parent="1" source="C5i6v7xtvxDd-QpiHmQA-146" target="C5i6v7xtvxDd-QpiHmQA-149">
          <mxGeometry relative="1" as="geometry" />
        </mxCell>
        <mxCell id="C5i6v7xtvxDd-QpiHmQA-145" value="2" style="edgeLabel;html=1;align=center;verticalAlign=middle;resizable=0;points=[];" vertex="1" connectable="0" parent="C5i6v7xtvxDd-QpiHmQA-144">
          <mxGeometry x="0.6258" relative="1" as="geometry">
            <mxPoint as="offset" />
          </mxGeometry>
        </mxCell>
        <mxCell id="C5i6v7xtvxDd-QpiHmQA-146" value="opcion=" style="strokeWidth=2;html=1;shape=mxgraph.flowchart.decision;whiteSpace=wrap;" vertex="1" parent="1">
          <mxGeometry x="510" y="1682.53" width="100" height="100" as="geometry" />
        </mxCell>
        <mxCell id="C5i6v7xtvxDd-QpiHmQA-147" style="edgeStyle=orthogonalEdgeStyle;rounded=0;orthogonalLoop=1;jettySize=auto;html=1;entryX=0.5;entryY=0;entryDx=0;entryDy=0;entryPerimeter=0;" edge="1" parent="1" source="C5i6v7xtvxDd-QpiHmQA-141" target="C5i6v7xtvxDd-QpiHmQA-146">
          <mxGeometry relative="1" as="geometry" />
        </mxCell>
        <mxCell id="C5i6v7xtvxDd-QpiHmQA-148" value="Ingrese el codigo del producto a buscar:" style="shape=parallelogram;html=1;strokeWidth=2;perimeter=parallelogramPerimeter;whiteSpace=wrap;rounded=1;arcSize=12;size=0.23;" vertex="1" parent="1">
          <mxGeometry x="195" y="1872.53" width="300" height="60" as="geometry" />
        </mxCell>
        <mxCell id="C5i6v7xtvxDd-QpiHmQA-149" value="Ingrese el nombre del producto a buscar:" style="shape=parallelogram;html=1;strokeWidth=2;perimeter=parallelogramPerimeter;whiteSpace=wrap;rounded=1;arcSize=12;size=0.23;" vertex="1" parent="1">
          <mxGeometry x="810" y="1872.53" width="305" height="60" as="geometry" />
        </mxCell>
        <mxCell id="C5i6v7xtvxDd-QpiHmQA-150" value="&quot;Opción Invalida" style="strokeWidth=2;html=1;shape=mxgraph.flowchart.display;whiteSpace=wrap;" vertex="1" parent="1">
          <mxGeometry x="1225" y="1922.53" width="100" height="60" as="geometry" />
        </mxCell>
        <mxCell id="C5i6v7xtvxDd-QpiHmQA-151" style="edgeStyle=orthogonalEdgeStyle;rounded=0;orthogonalLoop=1;jettySize=auto;html=1;entryX=0.5;entryY=0;entryDx=0;entryDy=0;entryPerimeter=0;" edge="1" parent="1">
          <mxGeometry relative="1" as="geometry">
            <mxPoint x="610" y="1730.0033333333338" as="sourcePoint" />
            <mxPoint x="1275" y="1919.9999999999998" as="targetPoint" />
          </mxGeometry>
        </mxCell>
        <mxCell id="C5i6v7xtvxDd-QpiHmQA-152" value="Else" style="edgeLabel;html=1;align=center;verticalAlign=middle;resizable=0;points=[];" vertex="1" connectable="0" parent="C5i6v7xtvxDd-QpiHmQA-151">
          <mxGeometry x="0.5862" y="-2" relative="1" as="geometry">
            <mxPoint x="2" y="39" as="offset" />
          </mxGeometry>
        </mxCell>
        <mxCell id="C5i6v7xtvxDd-QpiHmQA-153" style="edgeStyle=orthogonalEdgeStyle;rounded=0;orthogonalLoop=1;jettySize=auto;html=1;exitX=0.5;exitY=0;exitDx=0;exitDy=0;" edge="1" parent="1" source="C5i6v7xtvxDd-QpiHmQA-154">
          <mxGeometry relative="1" as="geometry">
            <mxPoint x="345" y="1962.53" as="targetPoint" />
            <Array as="points">
              <mxPoint x="555" y="2012.53" />
              <mxPoint x="555" y="1962.53" />
            </Array>
          </mxGeometry>
        </mxCell>
        <mxCell id="C5i6v7xtvxDd-QpiHmQA-154" value="for(i=0;i&amp;lt;Cantidad;i++)" style="rounded=1;whiteSpace=wrap;html=1;absoluteArcSize=1;arcSize=14;strokeWidth=2;" vertex="1" parent="1">
          <mxGeometry x="485" y="2057.5299999999997" width="140" height="100" as="geometry" />
        </mxCell>
        <mxCell id="C5i6v7xtvxDd-QpiHmQA-155" style="edgeStyle=orthogonalEdgeStyle;rounded=0;orthogonalLoop=1;jettySize=auto;html=1;exitX=0.5;exitY=1;exitDx=0;exitDy=0;exitPerimeter=0;entryX=0.5;entryY=1;entryDx=0;entryDy=0;" edge="1" parent="1" source="C5i6v7xtvxDd-QpiHmQA-156" target="C5i6v7xtvxDd-QpiHmQA-154">
          <mxGeometry relative="1" as="geometry">
            <Array as="points">
              <mxPoint x="345" y="2292.5299999999997" />
              <mxPoint x="555" y="2292.5299999999997" />
            </Array>
          </mxGeometry>
        </mxCell>
        <mxCell id="C5i6v7xtvxDd-QpiHmQA-156" value="productos[i].codigo == code" style="strokeWidth=2;html=1;shape=mxgraph.flowchart.decision;whiteSpace=wrap;" vertex="1" parent="1">
          <mxGeometry x="250" y="2002.53" width="190" height="100" as="geometry" />
        </mxCell>
        <mxCell id="C5i6v7xtvxDd-QpiHmQA-157" style="edgeStyle=orthogonalEdgeStyle;rounded=0;orthogonalLoop=1;jettySize=auto;html=1;entryX=0.5;entryY=0;entryDx=0;entryDy=0;entryPerimeter=0;" edge="1" parent="1" source="C5i6v7xtvxDd-QpiHmQA-148" target="C5i6v7xtvxDd-QpiHmQA-156">
          <mxGeometry relative="1" as="geometry" />
        </mxCell>
        <mxCell id="C5i6v7xtvxDd-QpiHmQA-158" style="edgeStyle=orthogonalEdgeStyle;rounded=0;orthogonalLoop=1;jettySize=auto;html=1;entryX=0.5;entryY=0;entryDx=0;entryDy=0;" edge="1" parent="1" source="C5i6v7xtvxDd-QpiHmQA-159" target="C5i6v7xtvxDd-QpiHmQA-162">
          <mxGeometry relative="1" as="geometry" />
        </mxCell>
        <mxCell id="C5i6v7xtvxDd-QpiHmQA-159" value="Producto encontrado: %s | Precio: %.2f | Codigo: %d | Tiempo/u: %.2f h" style="strokeWidth=2;html=1;shape=mxgraph.flowchart.display;whiteSpace=wrap;" vertex="1" parent="1">
          <mxGeometry x="70" y="2142.5299999999997" width="250" height="100" as="geometry" />
        </mxCell>
        <mxCell id="C5i6v7xtvxDd-QpiHmQA-160" style="edgeStyle=orthogonalEdgeStyle;rounded=0;orthogonalLoop=1;jettySize=auto;html=1;entryX=0.5;entryY=0;entryDx=0;entryDy=0;entryPerimeter=0;" edge="1" parent="1" source="C5i6v7xtvxDd-QpiHmQA-156" target="C5i6v7xtvxDd-QpiHmQA-159">
          <mxGeometry relative="1" as="geometry">
            <Array as="points">
              <mxPoint x="195" y="2052.5299999999997" />
            </Array>
          </mxGeometry>
        </mxCell>
        <mxCell id="C5i6v7xtvxDd-QpiHmQA-161" value="True" style="edgeLabel;html=1;align=center;verticalAlign=middle;resizable=0;points=[];" vertex="1" connectable="0" parent="C5i6v7xtvxDd-QpiHmQA-160">
          <mxGeometry x="0.0286" y="2" relative="1" as="geometry">
            <mxPoint as="offset" />
          </mxGeometry>
        </mxCell>
        <mxCell id="C5i6v7xtvxDd-QpiHmQA-162" value="Return" style="rounded=1;whiteSpace=wrap;html=1;absoluteArcSize=1;arcSize=14;strokeWidth=2;" vertex="1" parent="1">
          <mxGeometry x="145" y="2272.5299999999997" width="100" height="50" as="geometry" />
        </mxCell>
        <mxCell id="C5i6v7xtvxDd-QpiHmQA-163" value="&quot;Producto no encontrado&quot;" style="strokeWidth=2;html=1;shape=mxgraph.flowchart.display;whiteSpace=wrap;" vertex="1" parent="1">
          <mxGeometry x="405" y="2332.5299999999997" width="100" height="60" as="geometry" />
        </mxCell>
        <mxCell id="C5i6v7xtvxDd-QpiHmQA-164" style="edgeStyle=orthogonalEdgeStyle;rounded=0;orthogonalLoop=1;jettySize=auto;html=1;entryX=0.5;entryY=0;entryDx=0;entryDy=0;entryPerimeter=0;" edge="1" parent="1" source="C5i6v7xtvxDd-QpiHmQA-156" target="C5i6v7xtvxDd-QpiHmQA-163">
          <mxGeometry relative="1" as="geometry">
            <Array as="points">
              <mxPoint x="345" y="2292.5299999999997" />
              <mxPoint x="455" y="2292.5299999999997" />
            </Array>
          </mxGeometry>
        </mxCell>
        <mxCell id="C5i6v7xtvxDd-QpiHmQA-165" style="edgeStyle=orthogonalEdgeStyle;rounded=0;orthogonalLoop=1;jettySize=auto;html=1;entryX=0;entryY=0.5;entryDx=0;entryDy=0;entryPerimeter=0;" edge="1" parent="1" source="C5i6v7xtvxDd-QpiHmQA-163" target="C5i6v7xtvxDd-QpiHmQA-177">
          <mxGeometry relative="1" as="geometry">
            <mxPoint x="455" y="2432.5299999999997" as="targetPoint" />
            <Array as="points">
              <mxPoint x="455" y="2505" />
            </Array>
          </mxGeometry>
        </mxCell>
        <mxCell id="C5i6v7xtvxDd-QpiHmQA-166" style="edgeStyle=orthogonalEdgeStyle;rounded=0;orthogonalLoop=1;jettySize=auto;html=1;exitX=0.5;exitY=0;exitDx=0;exitDy=0;" edge="1" parent="1" source="C5i6v7xtvxDd-QpiHmQA-167">
          <mxGeometry relative="1" as="geometry">
            <mxPoint x="960" y="2032.53" as="targetPoint" />
            <Array as="points">
              <mxPoint x="1170" y="2032.53" />
              <mxPoint x="960" y="2032.53" />
            </Array>
          </mxGeometry>
        </mxCell>
        <mxCell id="C5i6v7xtvxDd-QpiHmQA-167" value="for(i=0;i&amp;lt;Cantidad;i++)" style="rounded=1;whiteSpace=wrap;html=1;absoluteArcSize=1;arcSize=14;strokeWidth=2;" vertex="1" parent="1">
          <mxGeometry x="1100" y="2172.5299999999997" width="140" height="100" as="geometry" />
        </mxCell>
        <mxCell id="C5i6v7xtvxDd-QpiHmQA-168" style="edgeStyle=orthogonalEdgeStyle;rounded=0;orthogonalLoop=1;jettySize=auto;html=1;exitX=0.5;exitY=1;exitDx=0;exitDy=0;exitPerimeter=0;entryX=0.5;entryY=1;entryDx=0;entryDy=0;" edge="1" parent="1" source="C5i6v7xtvxDd-QpiHmQA-169" target="C5i6v7xtvxDd-QpiHmQA-167">
          <mxGeometry relative="1" as="geometry">
            <Array as="points">
              <mxPoint x="960" y="2187" />
              <mxPoint x="960" y="2320" />
              <mxPoint x="1170" y="2320" />
            </Array>
          </mxGeometry>
        </mxCell>
        <mxCell id="C5i6v7xtvxDd-QpiHmQA-169" value="nombreBusqueda == productos[i].nombre" style="strokeWidth=2;html=1;shape=mxgraph.flowchart.decision;whiteSpace=wrap;" vertex="1" parent="1">
          <mxGeometry x="860" y="2057.5299999999997" width="205" height="130" as="geometry" />
        </mxCell>
        <mxCell id="C5i6v7xtvxDd-QpiHmQA-170" style="edgeStyle=orthogonalEdgeStyle;rounded=0;orthogonalLoop=1;jettySize=auto;html=1;entryX=0.5;entryY=0;entryDx=0;entryDy=0;" edge="1" parent="1" source="C5i6v7xtvxDd-QpiHmQA-171" target="C5i6v7xtvxDd-QpiHmQA-174">
          <mxGeometry relative="1" as="geometry" />
        </mxCell>
        <mxCell id="C5i6v7xtvxDd-QpiHmQA-171" value="Producto encontrado: %s | Precio: %.2f | Codigo: %d | Tiempo/u: %.2f h" style="strokeWidth=2;html=1;shape=mxgraph.flowchart.display;whiteSpace=wrap;" vertex="1" parent="1">
          <mxGeometry x="665" y="2172.5299999999997" width="250" height="100" as="geometry" />
        </mxCell>
        <mxCell id="C5i6v7xtvxDd-QpiHmQA-172" style="edgeStyle=orthogonalEdgeStyle;rounded=0;orthogonalLoop=1;jettySize=auto;html=1;entryX=0.5;entryY=0;entryDx=0;entryDy=0;entryPerimeter=0;exitX=0;exitY=0.5;exitDx=0;exitDy=0;exitPerimeter=0;" edge="1" parent="1" source="C5i6v7xtvxDd-QpiHmQA-169" target="C5i6v7xtvxDd-QpiHmQA-171">
          <mxGeometry relative="1" as="geometry">
            <Array as="points">
              <mxPoint x="790" y="2127.5299999999997" />
            </Array>
          </mxGeometry>
        </mxCell>
        <mxCell id="C5i6v7xtvxDd-QpiHmQA-173" value="True" style="edgeLabel;html=1;align=center;verticalAlign=middle;resizable=0;points=[];" vertex="1" connectable="0" parent="C5i6v7xtvxDd-QpiHmQA-172">
          <mxGeometry x="0.0286" y="2" relative="1" as="geometry">
            <mxPoint as="offset" />
          </mxGeometry>
        </mxCell>
        <mxCell id="C5i6v7xtvxDd-QpiHmQA-174" value="Return" style="rounded=1;whiteSpace=wrap;html=1;absoluteArcSize=1;arcSize=14;strokeWidth=2;" vertex="1" parent="1">
          <mxGeometry x="740" y="2322.5299999999997" width="100" height="50" as="geometry" />
        </mxCell>
        <mxCell id="C5i6v7xtvxDd-QpiHmQA-175" value="&quot;Producto no encontrado&quot;" style="strokeWidth=2;html=1;shape=mxgraph.flowchart.display;whiteSpace=wrap;" vertex="1" parent="1">
          <mxGeometry x="1020" y="2356.1299999999997" width="100" height="60" as="geometry" />
        </mxCell>
        <mxCell id="C5i6v7xtvxDd-QpiHmQA-176" style="edgeStyle=orthogonalEdgeStyle;rounded=0;orthogonalLoop=1;jettySize=auto;html=1;entryX=0.5;entryY=0;entryDx=0;entryDy=0;entryPerimeter=0;" edge="1" parent="1" source="C5i6v7xtvxDd-QpiHmQA-169" target="C5i6v7xtvxDd-QpiHmQA-175">
          <mxGeometry relative="1" as="geometry">
            <Array as="points">
              <mxPoint x="960" y="2320" />
              <mxPoint x="1070" y="2320" />
            </Array>
          </mxGeometry>
        </mxCell>
        <mxCell id="C5i6v7xtvxDd-QpiHmQA-177" value="End" style="strokeWidth=2;html=1;shape=mxgraph.flowchart.start_2;whiteSpace=wrap;" vertex="1" parent="1">
          <mxGeometry x="1020" y="2455.06" width="100" height="100" as="geometry" />
        </mxCell>
        <mxCell id="C5i6v7xtvxDd-QpiHmQA-178" style="edgeStyle=orthogonalEdgeStyle;rounded=0;orthogonalLoop=1;jettySize=auto;html=1;entryX=0.5;entryY=0;entryDx=0;entryDy=0;entryPerimeter=0;" edge="1" parent="1" source="C5i6v7xtvxDd-QpiHmQA-175" target="C5i6v7xtvxDd-QpiHmQA-177">
          <mxGeometry relative="1" as="geometry" />
        </mxCell>
        <mxCell id="C5i6v7xtvxDd-QpiHmQA-179" style="edgeStyle=orthogonalEdgeStyle;rounded=0;orthogonalLoop=1;jettySize=auto;html=1;exitX=0.5;exitY=1;exitDx=0;exitDy=0;entryX=0.5;entryY=0;entryDx=0;entryDy=0;entryPerimeter=0;" edge="1" parent="1" source="C5i6v7xtvxDd-QpiHmQA-149" target="C5i6v7xtvxDd-QpiHmQA-169">
          <mxGeometry relative="1" as="geometry" />
        </mxCell>
        <mxCell id="C5i6v7xtvxDd-QpiHmQA-180" style="edgeStyle=orthogonalEdgeStyle;rounded=0;orthogonalLoop=1;jettySize=auto;html=1;entryX=1;entryY=0.5;entryDx=0;entryDy=0;entryPerimeter=0;" edge="1" parent="1" source="C5i6v7xtvxDd-QpiHmQA-150" target="C5i6v7xtvxDd-QpiHmQA-177">
          <mxGeometry relative="1" as="geometry">
            <Array as="points">
              <mxPoint x="1275" y="2505" />
            </Array>
          </mxGeometry>
        </mxCell>
        <mxCell id="C5i6v7xtvxDd-QpiHmQA-184" style="edgeStyle=orthogonalEdgeStyle;rounded=0;orthogonalLoop=1;jettySize=auto;html=1;entryX=0.5;entryY=0;entryDx=0;entryDy=0;" edge="1" parent="1" source="C5i6v7xtvxDd-QpiHmQA-181" target="C5i6v7xtvxDd-QpiHmQA-183">
          <mxGeometry relative="1" as="geometry" />
        </mxCell>
        <mxCell id="C5i6v7xtvxDd-QpiHmQA-181" value="EditarProducto" style="strokeWidth=2;html=1;shape=mxgraph.flowchart.start_2;whiteSpace=wrap;" vertex="1" parent="1">
          <mxGeometry x="2157.5" y="1320" width="100" height="100" as="geometry" />
        </mxCell>
        <mxCell id="C5i6v7xtvxDd-QpiHmQA-185" style="edgeStyle=orthogonalEdgeStyle;rounded=0;orthogonalLoop=1;jettySize=auto;html=1;" edge="1" parent="1" source="C5i6v7xtvxDd-QpiHmQA-182">
          <mxGeometry relative="1" as="geometry">
            <mxPoint x="2210" y="1470" as="targetPoint" />
            <Array as="points">
              <mxPoint x="2620" y="1470" />
            </Array>
          </mxGeometry>
        </mxCell>
        <mxCell id="C5i6v7xtvxDd-QpiHmQA-182" value="for (int i = 0; i &amp;lt; cantidad; i++)" style="rounded=1;whiteSpace=wrap;html=1;absoluteArcSize=1;arcSize=14;strokeWidth=2;" vertex="1" parent="1">
          <mxGeometry x="2530" y="1570" width="180" height="100" as="geometry" />
        </mxCell>
        <mxCell id="C5i6v7xtvxDd-QpiHmQA-183" value="&quot;Ingrese el código del producto a editar: &quot;" style="shape=parallelogram;html=1;strokeWidth=2;perimeter=parallelogramPerimeter;whiteSpace=wrap;rounded=1;arcSize=12;size=0.23;" vertex="1" parent="1">
          <mxGeometry x="2048.75" y="1500" width="317.5" height="60" as="geometry" />
        </mxCell>
        <mxCell id="C5i6v7xtvxDd-QpiHmQA-186" value="productos[i].codigo == code" style="strokeWidth=2;html=1;shape=mxgraph.flowchart.decision;whiteSpace=wrap;" vertex="1" parent="1">
          <mxGeometry x="2107.5" y="1610" width="200" height="100" as="geometry" />
        </mxCell>
        <mxCell id="C5i6v7xtvxDd-QpiHmQA-187" style="edgeStyle=orthogonalEdgeStyle;rounded=0;orthogonalLoop=1;jettySize=auto;html=1;entryX=0.5;entryY=0;entryDx=0;entryDy=0;entryPerimeter=0;" edge="1" parent="1" source="C5i6v7xtvxDd-QpiHmQA-183" target="C5i6v7xtvxDd-QpiHmQA-186">
          <mxGeometry relative="1" as="geometry" />
        </mxCell>
        <mxCell id="C5i6v7xtvxDd-QpiHmQA-191" style="edgeStyle=orthogonalEdgeStyle;rounded=0;orthogonalLoop=1;jettySize=auto;html=1;entryX=0.5;entryY=0;entryDx=0;entryDy=0;" edge="1" parent="1" source="C5i6v7xtvxDd-QpiHmQA-188" target="C5i6v7xtvxDd-QpiHmQA-190">
          <mxGeometry relative="1" as="geometry" />
        </mxCell>
        <mxCell id="C5i6v7xtvxDd-QpiHmQA-188" value="&quot;Producto No Encontrado&quot;" style="strokeWidth=2;html=1;shape=mxgraph.flowchart.display;whiteSpace=wrap;" vertex="1" parent="1">
          <mxGeometry x="2310" y="1740" width="110" height="60" as="geometry" />
        </mxCell>
        <mxCell id="C5i6v7xtvxDd-QpiHmQA-189" style="edgeStyle=orthogonalEdgeStyle;rounded=0;orthogonalLoop=1;jettySize=auto;html=1;entryX=0.5;entryY=0;entryDx=0;entryDy=0;entryPerimeter=0;" edge="1" parent="1" source="C5i6v7xtvxDd-QpiHmQA-186" target="C5i6v7xtvxDd-QpiHmQA-188">
          <mxGeometry relative="1" as="geometry" />
        </mxCell>
        <mxCell id="C5i6v7xtvxDd-QpiHmQA-192" value="False" style="edgeLabel;html=1;align=center;verticalAlign=middle;resizable=0;points=[];" vertex="1" connectable="0" parent="C5i6v7xtvxDd-QpiHmQA-189">
          <mxGeometry x="0.3406" y="-5" relative="1" as="geometry">
            <mxPoint as="offset" />
          </mxGeometry>
        </mxCell>
        <mxCell id="C5i6v7xtvxDd-QpiHmQA-190" value="Return" style="rounded=1;whiteSpace=wrap;html=1;absoluteArcSize=1;arcSize=14;strokeWidth=2;" vertex="1" parent="1">
          <mxGeometry x="2315" y="1870" width="100" height="50" as="geometry" />
        </mxCell>
        <mxCell id="C5i6v7xtvxDd-QpiHmQA-198" style="edgeStyle=orthogonalEdgeStyle;rounded=0;orthogonalLoop=1;jettySize=auto;html=1;entryX=0.5;entryY=0;entryDx=0;entryDy=0;" edge="1" parent="1" source="C5i6v7xtvxDd-QpiHmQA-193" target="C5i6v7xtvxDd-QpiHmQA-197">
          <mxGeometry relative="1" as="geometry" />
        </mxCell>
        <mxCell id="C5i6v7xtvxDd-QpiHmQA-193" value="Producto encontrado: %s | Precio: %.2f | Codigo: %d | Tiempo/u: %.2f h" style="strokeWidth=2;html=1;shape=mxgraph.flowchart.display;whiteSpace=wrap;" vertex="1" parent="1">
          <mxGeometry x="1850" y="1720" width="250" height="100" as="geometry" />
        </mxCell>
        <mxCell id="C5i6v7xtvxDd-QpiHmQA-194" style="edgeStyle=orthogonalEdgeStyle;rounded=0;orthogonalLoop=1;jettySize=auto;html=1;entryX=0.5;entryY=0;entryDx=0;entryDy=0;entryPerimeter=0;" edge="1" parent="1" source="C5i6v7xtvxDd-QpiHmQA-186" target="C5i6v7xtvxDd-QpiHmQA-193">
          <mxGeometry relative="1" as="geometry" />
        </mxCell>
        <mxCell id="C5i6v7xtvxDd-QpiHmQA-196" value="True" style="edgeLabel;html=1;align=center;verticalAlign=middle;resizable=0;points=[];" vertex="1" connectable="0" parent="C5i6v7xtvxDd-QpiHmQA-194">
          <mxGeometry x="0.6398" relative="1" as="geometry">
            <mxPoint y="1" as="offset" />
          </mxGeometry>
        </mxCell>
        <mxCell id="C5i6v7xtvxDd-QpiHmQA-199" style="edgeStyle=orthogonalEdgeStyle;rounded=0;orthogonalLoop=1;jettySize=auto;html=1;entryX=0.5;entryY=1;entryDx=0;entryDy=0;" edge="1" parent="1" source="C5i6v7xtvxDd-QpiHmQA-197" target="C5i6v7xtvxDd-QpiHmQA-182">
          <mxGeometry relative="1" as="geometry">
            <Array as="points">
              <mxPoint x="1975" y="2000" />
              <mxPoint x="2620" y="2000" />
            </Array>
          </mxGeometry>
        </mxCell>
        <mxCell id="C5i6v7xtvxDd-QpiHmQA-202" style="edgeStyle=orthogonalEdgeStyle;rounded=0;orthogonalLoop=1;jettySize=auto;html=1;entryX=0.5;entryY=0;entryDx=0;entryDy=0;" edge="1" parent="1" source="C5i6v7xtvxDd-QpiHmQA-197" target="C5i6v7xtvxDd-QpiHmQA-203">
          <mxGeometry relative="1" as="geometry">
            <mxPoint x="2250" y="2140" as="targetPoint" />
            <Array as="points">
              <mxPoint x="1975" y="2000" />
              <mxPoint x="2250" y="2000" />
            </Array>
          </mxGeometry>
        </mxCell>
        <mxCell id="C5i6v7xtvxDd-QpiHmQA-197" value="Break" style="rounded=1;whiteSpace=wrap;html=1;absoluteArcSize=1;arcSize=14;strokeWidth=2;" vertex="1" parent="1">
          <mxGeometry x="1925" y="1870" width="100" height="50" as="geometry" />
        </mxCell>
        <mxCell id="C5i6v7xtvxDd-QpiHmQA-206" value="" style="edgeStyle=orthogonalEdgeStyle;rounded=0;orthogonalLoop=1;jettySize=auto;html=1;" edge="1" parent="1" source="C5i6v7xtvxDd-QpiHmQA-203" target="C5i6v7xtvxDd-QpiHmQA-205">
          <mxGeometry relative="1" as="geometry" />
        </mxCell>
        <mxCell id="C5i6v7xtvxDd-QpiHmQA-203" value="&quot;Selecciona que quieres editar del producto:&lt;br&gt;1. Nombre&lt;br&gt;2. Codigo&lt;br&gt;3. Tiempo de Fabricacion&lt;br&gt;4. Cantidad Fabricada&lt;br&gt;5. Precio&lt;br&gt;Seleccione una opcion: &quot;" style="shape=parallelogram;html=1;strokeWidth=2;perimeter=parallelogramPerimeter;whiteSpace=wrap;rounded=1;arcSize=12;size=0.23;" vertex="1" parent="1">
          <mxGeometry x="2050" y="2080" width="400" height="127.47" as="geometry" />
        </mxCell>
        <mxCell id="C5i6v7xtvxDd-QpiHmQA-213" style="edgeStyle=orthogonalEdgeStyle;rounded=0;orthogonalLoop=1;jettySize=auto;html=1;entryX=0.5;entryY=0;entryDx=0;entryDy=0;entryPerimeter=0;" edge="1" parent="1" source="C5i6v7xtvxDd-QpiHmQA-205" target="C5i6v7xtvxDd-QpiHmQA-225">
          <mxGeometry relative="1" as="geometry">
            <mxPoint x="1558" y="2400" as="targetPoint" />
          </mxGeometry>
        </mxCell>
        <mxCell id="C5i6v7xtvxDd-QpiHmQA-224" value="1" style="edgeLabel;html=1;align=center;verticalAlign=middle;resizable=0;points=[];" vertex="1" connectable="0" parent="C5i6v7xtvxDd-QpiHmQA-213">
          <mxGeometry x="0.8344" y="-1" relative="1" as="geometry">
            <mxPoint y="1" as="offset" />
          </mxGeometry>
        </mxCell>
        <mxCell id="C5i6v7xtvxDd-QpiHmQA-214" style="edgeStyle=orthogonalEdgeStyle;rounded=0;orthogonalLoop=1;jettySize=auto;html=1;exitX=0;exitY=0.5;exitDx=0;exitDy=0;entryX=0.5;entryY=0;entryDx=0;entryDy=0;entryPerimeter=0;" edge="1" parent="1" source="C5i6v7xtvxDd-QpiHmQA-205" target="C5i6v7xtvxDd-QpiHmQA-227">
          <mxGeometry relative="1" as="geometry">
            <mxPoint x="1880" y="2400" as="targetPoint" />
          </mxGeometry>
        </mxCell>
        <mxCell id="C5i6v7xtvxDd-QpiHmQA-223" value="2" style="edgeLabel;html=1;align=center;verticalAlign=middle;resizable=0;points=[];" vertex="1" connectable="0" parent="C5i6v7xtvxDd-QpiHmQA-214">
          <mxGeometry x="0.6779" y="-6" relative="1" as="geometry">
            <mxPoint as="offset" />
          </mxGeometry>
        </mxCell>
        <mxCell id="C5i6v7xtvxDd-QpiHmQA-215" value="" style="edgeStyle=orthogonalEdgeStyle;rounded=0;orthogonalLoop=1;jettySize=auto;html=1;entryX=0.5;entryY=0;entryDx=0;entryDy=0;entryPerimeter=0;" edge="1" parent="1">
          <mxGeometry relative="1" as="geometry">
            <mxPoint x="2290.001666666667" y="2297.4666666666662" as="sourcePoint" />
            <mxPoint x="2795.07" y="2416.13" as="targetPoint" />
          </mxGeometry>
        </mxCell>
        <mxCell id="C5i6v7xtvxDd-QpiHmQA-269" value="4" style="edgeLabel;html=1;align=center;verticalAlign=middle;resizable=0;points=[];" vertex="1" connectable="0" parent="C5i6v7xtvxDd-QpiHmQA-215">
          <mxGeometry x="0.7516" y="4" relative="1" as="geometry">
            <mxPoint as="offset" />
          </mxGeometry>
        </mxCell>
        <mxCell id="C5i6v7xtvxDd-QpiHmQA-216" style="edgeStyle=orthogonalEdgeStyle;rounded=0;orthogonalLoop=1;jettySize=auto;html=1;exitX=1;exitY=0.5;exitDx=0;exitDy=0;entryX=0.5;entryY=0;entryDx=0;entryDy=0;entryPerimeter=0;" edge="1" parent="1" source="C5i6v7xtvxDd-QpiHmQA-205" target="C5i6v7xtvxDd-QpiHmQA-236">
          <mxGeometry relative="1" as="geometry">
            <mxPoint x="2650" y="2430" as="targetPoint" />
          </mxGeometry>
        </mxCell>
        <mxCell id="C5i6v7xtvxDd-QpiHmQA-219" value="5" style="edgeLabel;html=1;align=center;verticalAlign=middle;resizable=0;points=[];" vertex="1" connectable="0" parent="C5i6v7xtvxDd-QpiHmQA-216">
          <mxGeometry x="0.8171" y="-4" relative="1" as="geometry">
            <mxPoint y="1" as="offset" />
          </mxGeometry>
        </mxCell>
        <mxCell id="C5i6v7xtvxDd-QpiHmQA-221" style="edgeStyle=orthogonalEdgeStyle;rounded=0;orthogonalLoop=1;jettySize=auto;html=1;exitX=0;exitY=0.5;exitDx=0;exitDy=0;entryX=0.5;entryY=0;entryDx=0;entryDy=0;entryPerimeter=0;" edge="1" parent="1" source="C5i6v7xtvxDd-QpiHmQA-205" target="C5i6v7xtvxDd-QpiHmQA-229">
          <mxGeometry relative="1" as="geometry">
            <mxPoint x="2145" y="2400" as="targetPoint" />
            <Array as="points">
              <mxPoint x="2340" y="2297" />
              <mxPoint x="2340" y="2406" />
            </Array>
          </mxGeometry>
        </mxCell>
        <mxCell id="C5i6v7xtvxDd-QpiHmQA-222" value="3" style="edgeLabel;html=1;align=center;verticalAlign=middle;resizable=0;points=[];" vertex="1" connectable="0" parent="C5i6v7xtvxDd-QpiHmQA-221">
          <mxGeometry x="0.366" y="4" relative="1" as="geometry">
            <mxPoint as="offset" />
          </mxGeometry>
        </mxCell>
        <mxCell id="C5i6v7xtvxDd-QpiHmQA-205" value="opcion=" style="rhombus;whiteSpace=wrap;html=1;strokeWidth=2;rounded=1;arcSize=12;" vertex="1" parent="1">
          <mxGeometry x="2210" y="2257.535" width="80" height="80" as="geometry" />
        </mxCell>
        <mxCell id="C5i6v7xtvxDd-QpiHmQA-207" value="Ingrese el nuevo nombre del producto:" style="shape=parallelogram;html=1;strokeWidth=2;perimeter=parallelogramPerimeter;whiteSpace=wrap;rounded=1;arcSize=12;size=0.23;" vertex="1" parent="1">
          <mxGeometry x="1325" y="2572.53" width="295" height="60" as="geometry" />
        </mxCell>
        <mxCell id="C5i6v7xtvxDd-QpiHmQA-208" value="Ingrese el nuevo precio del producto:" style="shape=parallelogram;html=1;strokeWidth=2;perimeter=parallelogramPerimeter;whiteSpace=wrap;rounded=1;arcSize=12;size=0.23;" vertex="1" parent="1">
          <mxGeometry x="3040" y="2575.0600000000004" width="300" height="60" as="geometry" />
        </mxCell>
        <mxCell id="C5i6v7xtvxDd-QpiHmQA-209" value="Ingrese el nuevo Tiempo de Fabricacion del producto:" style="shape=parallelogram;html=1;strokeWidth=2;perimeter=parallelogramPerimeter;whiteSpace=wrap;rounded=1;arcSize=12;size=0.23;" vertex="1" parent="1">
          <mxGeometry x="2690" y="2578.6600000000003" width="210" height="60" as="geometry" />
        </mxCell>
        <mxCell id="C5i6v7xtvxDd-QpiHmQA-210" value="Ingrese el nuevo Tiempo de Fabricacion del producto:" style="shape=parallelogram;html=1;strokeWidth=2;perimeter=parallelogramPerimeter;whiteSpace=wrap;rounded=1;arcSize=12;size=0.23;" vertex="1" parent="1">
          <mxGeometry x="2230" y="2568.6600000000003" width="210" height="60" as="geometry" />
        </mxCell>
        <mxCell id="C5i6v7xtvxDd-QpiHmQA-211" value="Ingrese el nuevo codigo del producto:" style="shape=parallelogram;html=1;strokeWidth=2;perimeter=parallelogramPerimeter;whiteSpace=wrap;rounded=1;arcSize=12;size=0.23;" vertex="1" parent="1">
          <mxGeometry x="1735" y="2572.53" width="290" height="60" as="geometry" />
        </mxCell>
        <mxCell id="C5i6v7xtvxDd-QpiHmQA-212" value="&quot;Opción Invalida&quot;" style="strokeWidth=2;html=1;shape=mxgraph.flowchart.display;whiteSpace=wrap;" vertex="1" parent="1">
          <mxGeometry x="3500" y="2552.5300000000007" width="120" height="60" as="geometry" />
        </mxCell>
        <mxCell id="C5i6v7xtvxDd-QpiHmQA-217" style="edgeStyle=orthogonalEdgeStyle;rounded=0;orthogonalLoop=1;jettySize=auto;html=1;exitX=1;exitY=0.5;exitDx=0;exitDy=0;entryX=0.5;entryY=0;entryDx=0;entryDy=0;entryPerimeter=0;" edge="1" parent="1" source="C5i6v7xtvxDd-QpiHmQA-205" target="C5i6v7xtvxDd-QpiHmQA-212">
          <mxGeometry relative="1" as="geometry">
            <Array as="points">
              <mxPoint x="3560" y="2297" />
            </Array>
          </mxGeometry>
        </mxCell>
        <mxCell id="C5i6v7xtvxDd-QpiHmQA-218" value="Else" style="edgeLabel;html=1;align=center;verticalAlign=middle;resizable=0;points=[];" vertex="1" connectable="0" parent="C5i6v7xtvxDd-QpiHmQA-217">
          <mxGeometry x="0.8623" relative="1" as="geometry">
            <mxPoint as="offset" />
          </mxGeometry>
        </mxCell>
        <mxCell id="C5i6v7xtvxDd-QpiHmQA-238" style="edgeStyle=orthogonalEdgeStyle;rounded=0;orthogonalLoop=1;jettySize=auto;html=1;exitX=0.5;exitY=1;exitDx=0;exitDy=0;exitPerimeter=0;entryX=0.5;entryY=0;entryDx=0;entryDy=0;" edge="1" parent="1" source="C5i6v7xtvxDd-QpiHmQA-225" target="C5i6v7xtvxDd-QpiHmQA-207">
          <mxGeometry relative="1" as="geometry" />
        </mxCell>
        <mxCell id="C5i6v7xtvxDd-QpiHmQA-239" value="True" style="edgeLabel;html=1;align=center;verticalAlign=middle;resizable=0;points=[];" vertex="1" connectable="0" parent="C5i6v7xtvxDd-QpiHmQA-238">
          <mxGeometry x="-0.3066" y="-6" relative="1" as="geometry">
            <mxPoint y="-1" as="offset" />
          </mxGeometry>
        </mxCell>
        <mxCell id="C5i6v7xtvxDd-QpiHmQA-225" value="productos[i].codigo == code" style="strokeWidth=2;html=1;shape=mxgraph.flowchart.decision;whiteSpace=wrap;" vertex="1" parent="1">
          <mxGeometry x="1377.5" y="2412.53" width="190" height="100" as="geometry" />
        </mxCell>
        <mxCell id="C5i6v7xtvxDd-QpiHmQA-228" style="edgeStyle=orthogonalEdgeStyle;rounded=0;orthogonalLoop=1;jettySize=auto;html=1;exitX=0.5;exitY=1;exitDx=0;exitDy=0;exitPerimeter=0;entryX=0.5;entryY=0;entryDx=0;entryDy=0;" edge="1" parent="1" source="C5i6v7xtvxDd-QpiHmQA-227" target="C5i6v7xtvxDd-QpiHmQA-211">
          <mxGeometry relative="1" as="geometry" />
        </mxCell>
        <mxCell id="C5i6v7xtvxDd-QpiHmQA-240" value="True" style="edgeLabel;html=1;align=center;verticalAlign=middle;resizable=0;points=[];" vertex="1" connectable="0" parent="C5i6v7xtvxDd-QpiHmQA-228">
          <mxGeometry x="-0.1258" relative="1" as="geometry">
            <mxPoint y="1" as="offset" />
          </mxGeometry>
        </mxCell>
        <mxCell id="C5i6v7xtvxDd-QpiHmQA-227" value="productos[i].codigo == code" style="strokeWidth=2;html=1;shape=mxgraph.flowchart.decision;whiteSpace=wrap;" vertex="1" parent="1">
          <mxGeometry x="1785" y="2410" width="190" height="100" as="geometry" />
        </mxCell>
        <mxCell id="C5i6v7xtvxDd-QpiHmQA-230" style="edgeStyle=orthogonalEdgeStyle;rounded=0;orthogonalLoop=1;jettySize=auto;html=1;exitX=0.5;exitY=1;exitDx=0;exitDy=0;exitPerimeter=0;entryX=0.5;entryY=0;entryDx=0;entryDy=0;" edge="1" parent="1" source="C5i6v7xtvxDd-QpiHmQA-229" target="C5i6v7xtvxDd-QpiHmQA-210">
          <mxGeometry relative="1" as="geometry" />
        </mxCell>
        <mxCell id="C5i6v7xtvxDd-QpiHmQA-241" value="True" style="edgeLabel;html=1;align=center;verticalAlign=middle;resizable=0;points=[];" vertex="1" connectable="0" parent="C5i6v7xtvxDd-QpiHmQA-230">
          <mxGeometry x="-0.0831" y="3" relative="1" as="geometry">
            <mxPoint y="-1" as="offset" />
          </mxGeometry>
        </mxCell>
        <mxCell id="C5i6v7xtvxDd-QpiHmQA-229" value="productos[i].codigo == code" style="strokeWidth=2;html=1;shape=mxgraph.flowchart.decision;whiteSpace=wrap;" vertex="1" parent="1">
          <mxGeometry x="2240" y="2406.13" width="190" height="100" as="geometry" />
        </mxCell>
        <mxCell id="C5i6v7xtvxDd-QpiHmQA-232" style="edgeStyle=orthogonalEdgeStyle;rounded=0;orthogonalLoop=1;jettySize=auto;html=1;exitX=0.5;exitY=1;exitDx=0;exitDy=0;exitPerimeter=0;entryX=0.5;entryY=0;entryDx=0;entryDy=0;" edge="1" parent="1" source="C5i6v7xtvxDd-QpiHmQA-231" target="C5i6v7xtvxDd-QpiHmQA-209">
          <mxGeometry relative="1" as="geometry" />
        </mxCell>
        <mxCell id="C5i6v7xtvxDd-QpiHmQA-242" value="True" style="edgeLabel;html=1;align=center;verticalAlign=middle;resizable=0;points=[];" vertex="1" connectable="0" parent="C5i6v7xtvxDd-QpiHmQA-232">
          <mxGeometry x="-0.1684" y="1" relative="1" as="geometry">
            <mxPoint y="1" as="offset" />
          </mxGeometry>
        </mxCell>
        <mxCell id="C5i6v7xtvxDd-QpiHmQA-231" value="productos[i].codigo == code" style="strokeWidth=2;html=1;shape=mxgraph.flowchart.decision;whiteSpace=wrap;" vertex="1" parent="1">
          <mxGeometry x="2700" y="2416.13" width="190" height="100" as="geometry" />
        </mxCell>
        <mxCell id="C5i6v7xtvxDd-QpiHmQA-237" style="edgeStyle=orthogonalEdgeStyle;rounded=0;orthogonalLoop=1;jettySize=auto;html=1;exitX=0.5;exitY=1;exitDx=0;exitDy=0;exitPerimeter=0;entryX=0.5;entryY=0;entryDx=0;entryDy=0;" edge="1" parent="1" source="C5i6v7xtvxDd-QpiHmQA-236" target="C5i6v7xtvxDd-QpiHmQA-208">
          <mxGeometry relative="1" as="geometry" />
        </mxCell>
        <mxCell id="C5i6v7xtvxDd-QpiHmQA-243" value="True" style="edgeLabel;html=1;align=center;verticalAlign=middle;resizable=0;points=[];" vertex="1" connectable="0" parent="C5i6v7xtvxDd-QpiHmQA-237">
          <mxGeometry x="-0.2789" y="1" relative="1" as="geometry">
            <mxPoint y="-1" as="offset" />
          </mxGeometry>
        </mxCell>
        <mxCell id="C5i6v7xtvxDd-QpiHmQA-236" value="productos[i].codigo == code" style="strokeWidth=2;html=1;shape=mxgraph.flowchart.decision;whiteSpace=wrap;" vertex="1" parent="1">
          <mxGeometry x="3095" y="2432.53" width="190" height="100" as="geometry" />
        </mxCell>
        <mxCell id="C5i6v7xtvxDd-QpiHmQA-257" style="edgeStyle=orthogonalEdgeStyle;rounded=0;orthogonalLoop=1;jettySize=auto;html=1;entryX=0.5;entryY=1;entryDx=0;entryDy=0;" edge="1" parent="1" source="C5i6v7xtvxDd-QpiHmQA-244" target="C5i6v7xtvxDd-QpiHmQA-255">
          <mxGeometry relative="1" as="geometry" />
        </mxCell>
        <mxCell id="C5i6v7xtvxDd-QpiHmQA-244" value="&quot;Nombre actualizado a: &quot;" style="strokeWidth=2;html=1;shape=mxgraph.flowchart.display;whiteSpace=wrap;" vertex="1" parent="1">
          <mxGeometry x="1387.5" y="2690" width="170" height="90" as="geometry" />
        </mxCell>
        <mxCell id="C5i6v7xtvxDd-QpiHmQA-261" style="edgeStyle=orthogonalEdgeStyle;rounded=0;orthogonalLoop=1;jettySize=auto;html=1;entryX=0.5;entryY=1;entryDx=0;entryDy=0;" edge="1" parent="1" source="C5i6v7xtvxDd-QpiHmQA-245" target="C5i6v7xtvxDd-QpiHmQA-260">
          <mxGeometry relative="1" as="geometry" />
        </mxCell>
        <mxCell id="C5i6v7xtvxDd-QpiHmQA-275" style="edgeStyle=orthogonalEdgeStyle;rounded=0;orthogonalLoop=1;jettySize=auto;html=1;" edge="1" parent="1" source="C5i6v7xtvxDd-QpiHmQA-245">
          <mxGeometry relative="1" as="geometry">
            <mxPoint x="2200" y="2970" as="targetPoint" />
            <Array as="points">
              <mxPoint x="1890" y="2970" />
            </Array>
          </mxGeometry>
        </mxCell>
        <mxCell id="C5i6v7xtvxDd-QpiHmQA-245" value="&quot;Código actualizado a: &quot;" style="strokeWidth=2;html=1;shape=mxgraph.flowchart.display;whiteSpace=wrap;" vertex="1" parent="1">
          <mxGeometry x="1795" y="2670" width="170" height="90" as="geometry" />
        </mxCell>
        <mxCell id="C5i6v7xtvxDd-QpiHmQA-264" style="edgeStyle=orthogonalEdgeStyle;rounded=0;orthogonalLoop=1;jettySize=auto;html=1;exitX=1;exitY=0.5;exitDx=0;exitDy=0;exitPerimeter=0;entryX=0.5;entryY=1;entryDx=0;entryDy=0;" edge="1" parent="1" source="C5i6v7xtvxDd-QpiHmQA-246" target="C5i6v7xtvxDd-QpiHmQA-263">
          <mxGeometry relative="1" as="geometry" />
        </mxCell>
        <mxCell id="C5i6v7xtvxDd-QpiHmQA-246" value="&quot;Tiempo de fabricación actualizado a: &quot;" style="strokeWidth=2;html=1;shape=mxgraph.flowchart.display;whiteSpace=wrap;" vertex="1" parent="1">
          <mxGeometry x="2250" y="2676.13" width="170" height="90" as="geometry" />
        </mxCell>
        <mxCell id="C5i6v7xtvxDd-QpiHmQA-267" style="edgeStyle=orthogonalEdgeStyle;rounded=0;orthogonalLoop=1;jettySize=auto;html=1;exitX=1;exitY=0.5;exitDx=0;exitDy=0;exitPerimeter=0;entryX=0.5;entryY=1;entryDx=0;entryDy=0;" edge="1" parent="1" source="C5i6v7xtvxDd-QpiHmQA-247" target="C5i6v7xtvxDd-QpiHmQA-266">
          <mxGeometry relative="1" as="geometry" />
        </mxCell>
        <mxCell id="C5i6v7xtvxDd-QpiHmQA-277" style="edgeStyle=orthogonalEdgeStyle;rounded=0;orthogonalLoop=1;jettySize=auto;html=1;" edge="1" parent="1" source="C5i6v7xtvxDd-QpiHmQA-247">
          <mxGeometry relative="1" as="geometry">
            <mxPoint x="2300" y="2970" as="targetPoint" />
            <Array as="points">
              <mxPoint x="2795" y="2970" />
            </Array>
          </mxGeometry>
        </mxCell>
        <mxCell id="C5i6v7xtvxDd-QpiHmQA-247" value="&quot;Tiempo de fabricación actualizado a: &quot;" style="strokeWidth=2;html=1;shape=mxgraph.flowchart.display;whiteSpace=wrap;" vertex="1" parent="1">
          <mxGeometry x="2710" y="2676.13" width="170" height="90" as="geometry" />
        </mxCell>
        <mxCell id="C5i6v7xtvxDd-QpiHmQA-272" style="edgeStyle=orthogonalEdgeStyle;rounded=0;orthogonalLoop=1;jettySize=auto;html=1;entryX=0.5;entryY=1;entryDx=0;entryDy=0;" edge="1" parent="1" source="C5i6v7xtvxDd-QpiHmQA-248" target="C5i6v7xtvxDd-QpiHmQA-271">
          <mxGeometry relative="1" as="geometry" />
        </mxCell>
        <mxCell id="C5i6v7xtvxDd-QpiHmQA-248" value="&quot;Precio actualizado a: &quot;" style="strokeWidth=2;html=1;shape=mxgraph.flowchart.display;whiteSpace=wrap;" vertex="1" parent="1">
          <mxGeometry x="3105" y="2682.53" width="170" height="90" as="geometry" />
        </mxCell>
        <mxCell id="C5i6v7xtvxDd-QpiHmQA-249" style="edgeStyle=orthogonalEdgeStyle;rounded=0;orthogonalLoop=1;jettySize=auto;html=1;entryX=0.5;entryY=0;entryDx=0;entryDy=0;entryPerimeter=0;" edge="1" parent="1" source="C5i6v7xtvxDd-QpiHmQA-207" target="C5i6v7xtvxDd-QpiHmQA-244">
          <mxGeometry relative="1" as="geometry" />
        </mxCell>
        <mxCell id="C5i6v7xtvxDd-QpiHmQA-250" style="edgeStyle=orthogonalEdgeStyle;rounded=0;orthogonalLoop=1;jettySize=auto;html=1;exitX=0.5;exitY=1;exitDx=0;exitDy=0;entryX=0.5;entryY=0;entryDx=0;entryDy=0;entryPerimeter=0;" edge="1" parent="1" source="C5i6v7xtvxDd-QpiHmQA-211" target="C5i6v7xtvxDd-QpiHmQA-245">
          <mxGeometry relative="1" as="geometry" />
        </mxCell>
        <mxCell id="C5i6v7xtvxDd-QpiHmQA-251" style="edgeStyle=orthogonalEdgeStyle;rounded=0;orthogonalLoop=1;jettySize=auto;html=1;exitX=0.5;exitY=1;exitDx=0;exitDy=0;entryX=0.5;entryY=0;entryDx=0;entryDy=0;entryPerimeter=0;" edge="1" parent="1" source="C5i6v7xtvxDd-QpiHmQA-210" target="C5i6v7xtvxDd-QpiHmQA-246">
          <mxGeometry relative="1" as="geometry" />
        </mxCell>
        <mxCell id="C5i6v7xtvxDd-QpiHmQA-252" style="edgeStyle=orthogonalEdgeStyle;rounded=0;orthogonalLoop=1;jettySize=auto;html=1;exitX=0.5;exitY=1;exitDx=0;exitDy=0;entryX=0.5;entryY=0;entryDx=0;entryDy=0;entryPerimeter=0;" edge="1" parent="1" source="C5i6v7xtvxDd-QpiHmQA-209" target="C5i6v7xtvxDd-QpiHmQA-247">
          <mxGeometry relative="1" as="geometry" />
        </mxCell>
        <mxCell id="C5i6v7xtvxDd-QpiHmQA-253" style="edgeStyle=orthogonalEdgeStyle;rounded=0;orthogonalLoop=1;jettySize=auto;html=1;exitX=0.5;exitY=1;exitDx=0;exitDy=0;entryX=0.5;entryY=0;entryDx=0;entryDy=0;entryPerimeter=0;" edge="1" parent="1" source="C5i6v7xtvxDd-QpiHmQA-208" target="C5i6v7xtvxDd-QpiHmQA-248">
          <mxGeometry relative="1" as="geometry" />
        </mxCell>
        <mxCell id="C5i6v7xtvxDd-QpiHmQA-256" style="edgeStyle=orthogonalEdgeStyle;rounded=0;orthogonalLoop=1;jettySize=auto;html=1;" edge="1" parent="1" source="C5i6v7xtvxDd-QpiHmQA-255">
          <mxGeometry relative="1" as="geometry">
            <mxPoint x="1470" y="2380" as="targetPoint" />
            <Array as="points">
              <mxPoint x="1685" y="2380" />
            </Array>
          </mxGeometry>
        </mxCell>
        <mxCell id="C5i6v7xtvxDd-QpiHmQA-255" value="for (int i = 0; i &amp;lt; cantidad; i++)" style="rounded=1;whiteSpace=wrap;html=1;absoluteArcSize=1;arcSize=14;strokeWidth=2;" vertex="1" parent="1">
          <mxGeometry x="1632.5" y="2520" width="105" height="100" as="geometry" />
        </mxCell>
        <mxCell id="C5i6v7xtvxDd-QpiHmQA-259" value="End" style="strokeWidth=2;html=1;shape=mxgraph.flowchart.start_2;whiteSpace=wrap;" vertex="1" parent="1">
          <mxGeometry x="2200" y="2920" width="100" height="100" as="geometry" />
        </mxCell>
        <mxCell id="C5i6v7xtvxDd-QpiHmQA-262" style="edgeStyle=orthogonalEdgeStyle;rounded=0;orthogonalLoop=1;jettySize=auto;html=1;exitX=0.5;exitY=0;exitDx=0;exitDy=0;" edge="1" parent="1" source="C5i6v7xtvxDd-QpiHmQA-260">
          <mxGeometry relative="1" as="geometry">
            <mxPoint x="1880" y="2360" as="targetPoint" />
            <Array as="points">
              <mxPoint x="2112" y="2360" />
            </Array>
          </mxGeometry>
        </mxCell>
        <mxCell id="C5i6v7xtvxDd-QpiHmQA-260" value="for (int i = 0; i &amp;lt; cantidad; i++)" style="rounded=1;whiteSpace=wrap;html=1;absoluteArcSize=1;arcSize=14;strokeWidth=2;" vertex="1" parent="1">
          <mxGeometry x="2060" y="2520" width="105" height="100" as="geometry" />
        </mxCell>
        <mxCell id="C5i6v7xtvxDd-QpiHmQA-265" style="edgeStyle=orthogonalEdgeStyle;rounded=0;orthogonalLoop=1;jettySize=auto;html=1;exitX=0.5;exitY=0;exitDx=0;exitDy=0;" edge="1" parent="1" source="C5i6v7xtvxDd-QpiHmQA-263">
          <mxGeometry relative="1" as="geometry">
            <mxPoint x="2340" y="2370" as="targetPoint" />
            <Array as="points">
              <mxPoint x="2522" y="2370" />
            </Array>
          </mxGeometry>
        </mxCell>
        <mxCell id="C5i6v7xtvxDd-QpiHmQA-263" value="for (int i = 0; i &amp;lt; cantidad; i++)" style="rounded=1;whiteSpace=wrap;html=1;absoluteArcSize=1;arcSize=14;strokeWidth=2;" vertex="1" parent="1">
          <mxGeometry x="2470" y="2520" width="105" height="100" as="geometry" />
        </mxCell>
        <mxCell id="C5i6v7xtvxDd-QpiHmQA-268" style="edgeStyle=orthogonalEdgeStyle;rounded=0;orthogonalLoop=1;jettySize=auto;html=1;exitX=0.5;exitY=0;exitDx=0;exitDy=0;" edge="1" parent="1" source="C5i6v7xtvxDd-QpiHmQA-266">
          <mxGeometry relative="1" as="geometry">
            <mxPoint x="2800" y="2370" as="targetPoint" />
            <Array as="points">
              <mxPoint x="2972" y="2370" />
            </Array>
          </mxGeometry>
        </mxCell>
        <mxCell id="C5i6v7xtvxDd-QpiHmQA-266" value="for (int i = 0; i &amp;lt; cantidad; i++)" style="rounded=1;whiteSpace=wrap;html=1;absoluteArcSize=1;arcSize=14;strokeWidth=2;" vertex="1" parent="1">
          <mxGeometry x="2920" y="2520" width="105" height="100" as="geometry" />
        </mxCell>
        <mxCell id="C5i6v7xtvxDd-QpiHmQA-273" style="edgeStyle=orthogonalEdgeStyle;rounded=0;orthogonalLoop=1;jettySize=auto;html=1;exitX=0.5;exitY=0;exitDx=0;exitDy=0;" edge="1" parent="1" source="C5i6v7xtvxDd-QpiHmQA-271">
          <mxGeometry relative="1" as="geometry">
            <mxPoint x="3190" y="2380" as="targetPoint" />
            <Array as="points">
              <mxPoint x="3402" y="2380" />
            </Array>
          </mxGeometry>
        </mxCell>
        <mxCell id="C5i6v7xtvxDd-QpiHmQA-271" value="for (int i = 0; i &amp;lt; cantidad; i++)" style="rounded=1;whiteSpace=wrap;html=1;absoluteArcSize=1;arcSize=14;strokeWidth=2;" vertex="1" parent="1">
          <mxGeometry x="3350" y="2555.06" width="105" height="100" as="geometry" />
        </mxCell>
        <mxCell id="C5i6v7xtvxDd-QpiHmQA-274" style="edgeStyle=orthogonalEdgeStyle;rounded=0;orthogonalLoop=1;jettySize=auto;html=1;entryX=0;entryY=0.5;entryDx=0;entryDy=0;entryPerimeter=0;" edge="1" parent="1" source="C5i6v7xtvxDd-QpiHmQA-244" target="C5i6v7xtvxDd-QpiHmQA-259">
          <mxGeometry relative="1" as="geometry">
            <Array as="points">
              <mxPoint x="1472" y="2970" />
            </Array>
          </mxGeometry>
        </mxCell>
        <mxCell id="C5i6v7xtvxDd-QpiHmQA-276" style="edgeStyle=orthogonalEdgeStyle;rounded=0;orthogonalLoop=1;jettySize=auto;html=1;entryX=1;entryY=0.5;entryDx=0;entryDy=0;entryPerimeter=0;" edge="1" parent="1" source="C5i6v7xtvxDd-QpiHmQA-246" target="C5i6v7xtvxDd-QpiHmQA-259">
          <mxGeometry relative="1" as="geometry" />
        </mxCell>
        <mxCell id="C5i6v7xtvxDd-QpiHmQA-278" style="edgeStyle=orthogonalEdgeStyle;rounded=0;orthogonalLoop=1;jettySize=auto;html=1;entryX=1;entryY=0.5;entryDx=0;entryDy=0;entryPerimeter=0;" edge="1" parent="1" source="C5i6v7xtvxDd-QpiHmQA-248" target="C5i6v7xtvxDd-QpiHmQA-259">
          <mxGeometry relative="1" as="geometry">
            <Array as="points">
              <mxPoint x="3190" y="2970" />
            </Array>
          </mxGeometry>
        </mxCell>
        <mxCell id="C5i6v7xtvxDd-QpiHmQA-279" style="edgeStyle=orthogonalEdgeStyle;rounded=0;orthogonalLoop=1;jettySize=auto;html=1;entryX=1;entryY=0.5;entryDx=0;entryDy=0;entryPerimeter=0;" edge="1" parent="1" source="C5i6v7xtvxDd-QpiHmQA-212" target="C5i6v7xtvxDd-QpiHmQA-259">
          <mxGeometry relative="1" as="geometry">
            <Array as="points">
              <mxPoint x="3560" y="2970" />
            </Array>
          </mxGeometry>
        </mxCell>
        <mxCell id="C5i6v7xtvxDd-QpiHmQA-280" value="CalcularDemanda" style="strokeWidth=2;html=1;shape=mxgraph.flowchart.start_2;whiteSpace=wrap;" vertex="1" parent="1">
          <mxGeometry x="3172.5" y="870" width="125" height="120" as="geometry" />
        </mxCell>
        <mxCell id="C5i6v7xtvxDd-QpiHmQA-299" style="edgeStyle=orthogonalEdgeStyle;rounded=0;orthogonalLoop=1;jettySize=auto;html=1;entryX=0.5;entryY=0;entryDx=0;entryDy=0;" edge="1" parent="1" source="C5i6v7xtvxDd-QpiHmQA-297" target="C5i6v7xtvxDd-QpiHmQA-298">
          <mxGeometry relative="1" as="geometry" />
        </mxCell>
        <mxCell id="C5i6v7xtvxDd-QpiHmQA-297" value="EliminarProducto" style="strokeWidth=2;html=1;shape=mxgraph.flowchart.start_2;whiteSpace=wrap;" vertex="1" parent="1">
          <mxGeometry x="3110" y="-360" width="100" height="100" as="geometry" />
        </mxCell>
        <mxCell id="C5i6v7xtvxDd-QpiHmQA-298" value="Ingrese el código del producto a eliminar" style="shape=parallelogram;html=1;strokeWidth=2;perimeter=parallelogramPerimeter;whiteSpace=wrap;rounded=1;arcSize=12;size=0.23;" vertex="1" parent="1">
          <mxGeometry x="3080" y="-220" width="160" height="80" as="geometry" />
        </mxCell>
        <mxCell id="C5i6v7xtvxDd-QpiHmQA-304" style="edgeStyle=orthogonalEdgeStyle;rounded=0;orthogonalLoop=1;jettySize=auto;html=1;entryX=0.5;entryY=0;entryDx=0;entryDy=0;" edge="1" parent="1" source="C5i6v7xtvxDd-QpiHmQA-300" target="C5i6v7xtvxDd-QpiHmQA-302">
          <mxGeometry relative="1" as="geometry" />
        </mxCell>
        <mxCell id="C5i6v7xtvxDd-QpiHmQA-305" value="True" style="edgeLabel;html=1;align=center;verticalAlign=middle;resizable=0;points=[];" vertex="1" connectable="0" parent="C5i6v7xtvxDd-QpiHmQA-304">
          <mxGeometry x="0.5647" y="1" relative="1" as="geometry">
            <mxPoint as="offset" />
          </mxGeometry>
        </mxCell>
        <mxCell id="C5i6v7xtvxDd-QpiHmQA-300" value="productos[i].codigo == code" style="strokeWidth=2;html=1;shape=mxgraph.flowchart.decision;whiteSpace=wrap;" vertex="1" parent="1">
          <mxGeometry x="3065" y="-100" width="190" height="100" as="geometry" />
        </mxCell>
        <mxCell id="C5i6v7xtvxDd-QpiHmQA-301" style="edgeStyle=orthogonalEdgeStyle;rounded=0;orthogonalLoop=1;jettySize=auto;html=1;entryX=0.5;entryY=0;entryDx=0;entryDy=0;entryPerimeter=0;" edge="1" parent="1" source="C5i6v7xtvxDd-QpiHmQA-298" target="C5i6v7xtvxDd-QpiHmQA-300">
          <mxGeometry relative="1" as="geometry" />
        </mxCell>
        <mxCell id="C5i6v7xtvxDd-QpiHmQA-307" style="edgeStyle=orthogonalEdgeStyle;rounded=0;orthogonalLoop=1;jettySize=auto;html=1;entryX=0.5;entryY=0;entryDx=0;entryDy=0;" edge="1" parent="1" source="C5i6v7xtvxDd-QpiHmQA-302" target="C5i6v7xtvxDd-QpiHmQA-303">
          <mxGeometry relative="1" as="geometry" />
        </mxCell>
        <mxCell id="C5i6v7xtvxDd-QpiHmQA-302" value="eliminados[*eliminadosCount] = productos[i];&amp;nbsp;&amp;nbsp;&amp;nbsp;&amp;nbsp; (*eliminadosCount)++;" style="rounded=1;whiteSpace=wrap;html=1;absoluteArcSize=1;arcSize=14;strokeWidth=2;" vertex="1" parent="1">
          <mxGeometry x="2850" width="190" height="100" as="geometry" />
        </mxCell>
        <mxCell id="C5i6v7xtvxDd-QpiHmQA-308" style="edgeStyle=orthogonalEdgeStyle;rounded=0;orthogonalLoop=1;jettySize=auto;html=1;entryX=0.5;entryY=0;entryDx=0;entryDy=0;" edge="1" parent="1" source="C5i6v7xtvxDd-QpiHmQA-303" target="C5i6v7xtvxDd-QpiHmQA-306">
          <mxGeometry relative="1" as="geometry" />
        </mxCell>
        <mxCell id="C5i6v7xtvxDd-QpiHmQA-311" style="edgeStyle=orthogonalEdgeStyle;rounded=0;orthogonalLoop=1;jettySize=auto;html=1;entryX=0.5;entryY=1;entryDx=0;entryDy=0;" edge="1" parent="1" source="C5i6v7xtvxDd-QpiHmQA-303" target="C5i6v7xtvxDd-QpiHmQA-309">
          <mxGeometry relative="1" as="geometry">
            <Array as="points">
              <mxPoint x="2945" y="280" />
              <mxPoint x="3200" y="280" />
            </Array>
          </mxGeometry>
        </mxCell>
        <mxCell id="C5i6v7xtvxDd-QpiHmQA-303" value="productos[j] = productos[j + 1]" style="rounded=1;whiteSpace=wrap;html=1;absoluteArcSize=1;arcSize=14;strokeWidth=2;" vertex="1" parent="1">
          <mxGeometry x="2853.75" y="150" width="182.5" height="100" as="geometry" />
        </mxCell>
        <mxCell id="C5i6v7xtvxDd-QpiHmQA-306" value="(*cantidad)--" style="rounded=1;whiteSpace=wrap;html=1;absoluteArcSize=1;arcSize=14;strokeWidth=2;" vertex="1" parent="1">
          <mxGeometry x="2895" y="300" width="100" height="100" as="geometry" />
        </mxCell>
        <mxCell id="C5i6v7xtvxDd-QpiHmQA-310" style="edgeStyle=orthogonalEdgeStyle;rounded=0;orthogonalLoop=1;jettySize=auto;html=1;" edge="1" parent="1" source="C5i6v7xtvxDd-QpiHmQA-309">
          <mxGeometry relative="1" as="geometry">
            <mxPoint x="2950" y="120" as="targetPoint" />
            <Array as="points">
              <mxPoint x="3200" y="120" />
            </Array>
          </mxGeometry>
        </mxCell>
        <mxCell id="C5i6v7xtvxDd-QpiHmQA-309" value="int j = i; j &amp;lt; *cantidad - 1; j++" style="rounded=1;whiteSpace=wrap;html=1;absoluteArcSize=1;arcSize=14;strokeWidth=2;" vertex="1" parent="1">
          <mxGeometry x="3120" y="160" width="160" height="80" as="geometry" />
        </mxCell>
        <mxCell id="C5i6v7xtvxDd-QpiHmQA-313" style="edgeStyle=orthogonalEdgeStyle;rounded=0;orthogonalLoop=1;jettySize=auto;html=1;" edge="1" parent="1" source="C5i6v7xtvxDd-QpiHmQA-312">
          <mxGeometry relative="1" as="geometry">
            <mxPoint x="3170" y="-120" as="targetPoint" />
            <Array as="points">
              <mxPoint x="3465" y="-120" />
            </Array>
          </mxGeometry>
        </mxCell>
        <mxCell id="C5i6v7xtvxDd-QpiHmQA-312" value="int i = 0; i &amp;lt; *cantidad; i++" style="rounded=1;whiteSpace=wrap;html=1;absoluteArcSize=1;arcSize=14;strokeWidth=2;" vertex="1" parent="1">
          <mxGeometry x="3380" y="120" width="170" height="100" as="geometry" />
        </mxCell>
        <mxCell id="C5i6v7xtvxDd-QpiHmQA-318" style="edgeStyle=orthogonalEdgeStyle;rounded=0;orthogonalLoop=1;jettySize=auto;html=1;entryX=0.5;entryY=0;entryDx=0;entryDy=0;" edge="1" parent="1" source="C5i6v7xtvxDd-QpiHmQA-314" target="C5i6v7xtvxDd-QpiHmQA-317">
          <mxGeometry relative="1" as="geometry" />
        </mxCell>
        <mxCell id="C5i6v7xtvxDd-QpiHmQA-314" value="&quot;Producto eliminado y almacenado en la lista de eliminados&quot;" style="strokeWidth=2;html=1;shape=mxgraph.flowchart.display;whiteSpace=wrap;" vertex="1" parent="1">
          <mxGeometry x="2770" y="424.03" width="350" height="80" as="geometry" />
        </mxCell>
        <mxCell id="C5i6v7xtvxDd-QpiHmQA-315" style="edgeStyle=orthogonalEdgeStyle;rounded=0;orthogonalLoop=1;jettySize=auto;html=1;entryX=0.5;entryY=0;entryDx=0;entryDy=0;entryPerimeter=0;" edge="1" parent="1" source="C5i6v7xtvxDd-QpiHmQA-306" target="C5i6v7xtvxDd-QpiHmQA-314">
          <mxGeometry relative="1" as="geometry" />
        </mxCell>
        <mxCell id="C5i6v7xtvxDd-QpiHmQA-316" value="&quot;Producto no encontrado&quot;" style="strokeWidth=2;html=1;shape=mxgraph.flowchart.display;whiteSpace=wrap;" vertex="1" parent="1">
          <mxGeometry x="3150" y="670" width="100" height="60" as="geometry" />
        </mxCell>
        <mxCell id="C5i6v7xtvxDd-QpiHmQA-319" style="edgeStyle=orthogonalEdgeStyle;rounded=0;orthogonalLoop=1;jettySize=auto;html=1;entryX=0.5;entryY=1;entryDx=0;entryDy=0;" edge="1" parent="1" source="C5i6v7xtvxDd-QpiHmQA-317" target="C5i6v7xtvxDd-QpiHmQA-312">
          <mxGeometry relative="1" as="geometry">
            <Array as="points">
              <mxPoint x="2945" y="614.03" />
              <mxPoint x="3465" y="614.03" />
            </Array>
          </mxGeometry>
        </mxCell>
        <mxCell id="C5i6v7xtvxDd-QpiHmQA-317" value="Return" style="rounded=1;whiteSpace=wrap;html=1;absoluteArcSize=1;arcSize=14;strokeWidth=2;" vertex="1" parent="1">
          <mxGeometry x="2895" y="520" width="100" height="60" as="geometry" />
        </mxCell>
        <mxCell id="C5i6v7xtvxDd-QpiHmQA-321" value="End" style="strokeWidth=2;html=1;shape=mxgraph.flowchart.start_2;whiteSpace=wrap;" vertex="1" parent="1">
          <mxGeometry x="3010" y="720" width="100" height="100" as="geometry" />
        </mxCell>
        <mxCell id="C5i6v7xtvxDd-QpiHmQA-322" style="edgeStyle=orthogonalEdgeStyle;rounded=0;orthogonalLoop=1;jettySize=auto;html=1;entryX=0.5;entryY=0;entryDx=0;entryDy=0;entryPerimeter=0;" edge="1" parent="1" source="C5i6v7xtvxDd-QpiHmQA-316" target="C5i6v7xtvxDd-QpiHmQA-321">
          <mxGeometry relative="1" as="geometry" />
        </mxCell>
        <mxCell id="C5i6v7xtvxDd-QpiHmQA-324" value="" style="endArrow=classic;html=1;rounded=0;entryX=0.5;entryY=0;entryDx=0;entryDy=0;entryPerimeter=0;" edge="1" parent="1" target="C5i6v7xtvxDd-QpiHmQA-316">
          <mxGeometry width="50" height="50" relative="1" as="geometry">
            <mxPoint x="3200" y="610" as="sourcePoint" />
            <mxPoint x="3300" y="520" as="targetPoint" />
          </mxGeometry>
        </mxCell>
        <mxCell id="C5i6v7xtvxDd-QpiHmQA-326" style="edgeStyle=orthogonalEdgeStyle;rounded=0;orthogonalLoop=1;jettySize=auto;html=1;entryX=0.5;entryY=0;entryDx=0;entryDy=0;" edge="1" parent="1" source="C5i6v7xtvxDd-QpiHmQA-325" target="LcZc_sEwQm5LV-d36QQi-10">
          <mxGeometry relative="1" as="geometry" />
        </mxCell>
        <mxCell id="C5i6v7xtvxDd-QpiHmQA-332" value="False" style="edgeLabel;html=1;align=center;verticalAlign=middle;resizable=0;points=[];" vertex="1" connectable="0" parent="C5i6v7xtvxDd-QpiHmQA-326">
          <mxGeometry x="-0.1049" y="1" relative="1" as="geometry">
            <mxPoint as="offset" />
          </mxGeometry>
        </mxCell>
        <mxCell id="C5i6v7xtvxDd-QpiHmQA-325" value="Tiempo&amp;lt;=0" style="strokeWidth=2;html=1;shape=mxgraph.flowchart.decision;whiteSpace=wrap;" vertex="1" parent="1">
          <mxGeometry x="1316.5" y="10" width="100" height="100" as="geometry" />
        </mxCell>
        <mxCell id="C5i6v7xtvxDd-QpiHmQA-330" style="edgeStyle=orthogonalEdgeStyle;rounded=0;orthogonalLoop=1;jettySize=auto;html=1;entryX=1;entryY=0.5;entryDx=0;entryDy=0;" edge="1" parent="1" source="C5i6v7xtvxDd-QpiHmQA-328" target="LcZc_sEwQm5LV-d36QQi-8">
          <mxGeometry relative="1" as="geometry">
            <Array as="points">
              <mxPoint x="1540" y="-72" />
            </Array>
          </mxGeometry>
        </mxCell>
        <mxCell id="C5i6v7xtvxDd-QpiHmQA-328" value="&quot;El tiempo debe ser mayor a 0. Intente nuevamente&quot;" style="strokeWidth=2;html=1;shape=mxgraph.flowchart.display;whiteSpace=wrap;" vertex="1" parent="1">
          <mxGeometry x="1470" y="15" width="140" height="90" as="geometry" />
        </mxCell>
        <mxCell id="C5i6v7xtvxDd-QpiHmQA-329" style="edgeStyle=orthogonalEdgeStyle;rounded=0;orthogonalLoop=1;jettySize=auto;html=1;exitX=1;exitY=0.5;exitDx=0;exitDy=0;exitPerimeter=0;entryX=0;entryY=0.5;entryDx=0;entryDy=0;entryPerimeter=0;" edge="1" parent="1" source="C5i6v7xtvxDd-QpiHmQA-325" target="C5i6v7xtvxDd-QpiHmQA-328">
          <mxGeometry relative="1" as="geometry" />
        </mxCell>
        <mxCell id="C5i6v7xtvxDd-QpiHmQA-331" value="True" style="edgeLabel;html=1;align=center;verticalAlign=middle;resizable=0;points=[];" vertex="1" connectable="0" parent="C5i6v7xtvxDd-QpiHmQA-329">
          <mxGeometry x="-0.1589" y="1" relative="1" as="geometry">
            <mxPoint x="1" as="offset" />
          </mxGeometry>
        </mxCell>
        <mxCell id="C5i6v7xtvxDd-QpiHmQA-337" style="edgeStyle=orthogonalEdgeStyle;rounded=0;orthogonalLoop=1;jettySize=auto;html=1;entryX=0.5;entryY=0;entryDx=0;entryDy=0;" edge="1" parent="1" source="C5i6v7xtvxDd-QpiHmQA-333" target="LcZc_sEwQm5LV-d36QQi-31">
          <mxGeometry relative="1" as="geometry" />
        </mxCell>
        <mxCell id="C5i6v7xtvxDd-QpiHmQA-338" value="False" style="edgeLabel;html=1;align=center;verticalAlign=middle;resizable=0;points=[];" vertex="1" connectable="0" parent="C5i6v7xtvxDd-QpiHmQA-337">
          <mxGeometry x="-0.2" relative="1" as="geometry">
            <mxPoint as="offset" />
          </mxGeometry>
        </mxCell>
        <mxCell id="C5i6v7xtvxDd-QpiHmQA-333" value="Recursos&amp;lt;=0" style="strokeWidth=2;html=1;shape=mxgraph.flowchart.decision;whiteSpace=wrap;" vertex="1" parent="1">
          <mxGeometry x="1315" y="280" width="100" height="100" as="geometry" />
        </mxCell>
        <mxCell id="C5i6v7xtvxDd-QpiHmQA-334" value="&quot;Los recursos deben ser mayores a 0. Intente nuevamente&quot;" style="strokeWidth=2;html=1;shape=mxgraph.flowchart.display;whiteSpace=wrap;" vertex="1" parent="1">
          <mxGeometry x="1470" y="285" width="170" height="90" as="geometry" />
        </mxCell>
        <mxCell id="C5i6v7xtvxDd-QpiHmQA-335" style="edgeStyle=orthogonalEdgeStyle;rounded=0;orthogonalLoop=1;jettySize=auto;html=1;exitX=1;exitY=0.5;exitDx=0;exitDy=0;exitPerimeter=0;entryX=0;entryY=0.5;entryDx=0;entryDy=0;entryPerimeter=0;" edge="1" parent="1" source="C5i6v7xtvxDd-QpiHmQA-333" target="C5i6v7xtvxDd-QpiHmQA-334">
          <mxGeometry relative="1" as="geometry" />
        </mxCell>
        <mxCell id="C5i6v7xtvxDd-QpiHmQA-336" value="True" style="edgeLabel;html=1;align=center;verticalAlign=middle;resizable=0;points=[];" vertex="1" connectable="0" parent="C5i6v7xtvxDd-QpiHmQA-335">
          <mxGeometry x="-0.1589" y="1" relative="1" as="geometry">
            <mxPoint x="1" as="offset" />
          </mxGeometry>
        </mxCell>
        <mxCell id="C5i6v7xtvxDd-QpiHmQA-340" style="edgeStyle=orthogonalEdgeStyle;rounded=0;orthogonalLoop=1;jettySize=auto;html=1;entryX=0.5;entryY=0;entryDx=0;entryDy=0;" edge="1" parent="1" source="C5i6v7xtvxDd-QpiHmQA-339" target="LcZc_sEwQm5LV-d36QQi-19">
          <mxGeometry relative="1" as="geometry" />
        </mxCell>
        <mxCell id="C5i6v7xtvxDd-QpiHmQA-341" value="False" style="edgeLabel;html=1;align=center;verticalAlign=middle;resizable=0;points=[];" vertex="1" connectable="0" parent="C5i6v7xtvxDd-QpiHmQA-340">
          <mxGeometry x="-0.1758" y="-1" relative="1" as="geometry">
            <mxPoint as="offset" />
          </mxGeometry>
        </mxCell>
        <mxCell id="C5i6v7xtvxDd-QpiHmQA-339" value="exceso=1" style="strokeWidth=2;html=1;shape=mxgraph.flowchart.decision;whiteSpace=wrap;" vertex="1" parent="1">
          <mxGeometry x="1835" y="-155.53" width="100" height="100" as="geometry" />
        </mxCell>
        <mxCell id="C5i6v7xtvxDd-QpiHmQA-342" value="Ingresaste más de 30 caracteres" style="strokeWidth=2;html=1;shape=mxgraph.flowchart.display;whiteSpace=wrap;" vertex="1" parent="1">
          <mxGeometry x="1985" y="-135.53" width="100" height="60" as="geometry" />
        </mxCell>
        <mxCell id="C5i6v7xtvxDd-QpiHmQA-343" style="edgeStyle=orthogonalEdgeStyle;rounded=0;orthogonalLoop=1;jettySize=auto;html=1;exitX=1;exitY=0.5;exitDx=0;exitDy=0;exitPerimeter=0;entryX=0;entryY=0.5;entryDx=0;entryDy=0;entryPerimeter=0;" edge="1" parent="1" source="C5i6v7xtvxDd-QpiHmQA-339" target="C5i6v7xtvxDd-QpiHmQA-342">
          <mxGeometry relative="1" as="geometry" />
        </mxCell>
        <mxCell id="C5i6v7xtvxDd-QpiHmQA-348" value="True" style="edgeLabel;html=1;align=center;verticalAlign=middle;resizable=0;points=[];" vertex="1" connectable="0" parent="C5i6v7xtvxDd-QpiHmQA-343">
          <mxGeometry x="-0.4857" relative="1" as="geometry">
            <mxPoint as="offset" />
          </mxGeometry>
        </mxCell>
        <mxCell id="C5i6v7xtvxDd-QpiHmQA-346" value="" style="endArrow=classic;html=1;rounded=0;entryX=1;entryY=0.5;entryDx=0;entryDy=0;exitX=0.5;exitY=0;exitDx=0;exitDy=0;exitPerimeter=0;" edge="1" parent="1" source="C5i6v7xtvxDd-QpiHmQA-342" target="LcZc_sEwQm5LV-d36QQi-14">
          <mxGeometry width="50" height="50" relative="1" as="geometry">
            <mxPoint x="1875" y="-73" as="sourcePoint" />
            <mxPoint x="1925" y="-123" as="targetPoint" />
            <Array as="points">
              <mxPoint x="2035" y="-216" />
            </Array>
          </mxGeometry>
        </mxCell>
        <mxCell id="C5i6v7xtvxDd-QpiHmQA-353" style="edgeStyle=orthogonalEdgeStyle;rounded=0;orthogonalLoop=1;jettySize=auto;html=1;exitX=0.5;exitY=1;exitDx=0;exitDy=0;exitPerimeter=0;entryX=0.5;entryY=0;entryDx=0;entryDy=0;" edge="1" parent="1" source="C5i6v7xtvxDd-QpiHmQA-349" target="LcZc_sEwQm5LV-d36QQi-20">
          <mxGeometry relative="1" as="geometry" />
        </mxCell>
        <mxCell id="C5i6v7xtvxDd-QpiHmQA-354" value="False" style="edgeLabel;html=1;align=center;verticalAlign=middle;resizable=0;points=[];" vertex="1" connectable="0" parent="C5i6v7xtvxDd-QpiHmQA-353">
          <mxGeometry x="0.0943" y="-2" relative="1" as="geometry">
            <mxPoint x="2" y="-2" as="offset" />
          </mxGeometry>
        </mxCell>
        <mxCell id="C5i6v7xtvxDd-QpiHmQA-349" value="Precio &amp;lt;=0" style="strokeWidth=2;html=1;shape=mxgraph.flowchart.decision;whiteSpace=wrap;" vertex="1" parent="1">
          <mxGeometry x="1835" y="71.99999999999997" width="100" height="100" as="geometry" />
        </mxCell>
        <mxCell id="C5i6v7xtvxDd-QpiHmQA-355" style="edgeStyle=orthogonalEdgeStyle;rounded=0;orthogonalLoop=1;jettySize=auto;html=1;entryX=1;entryY=0.5;entryDx=0;entryDy=0;" edge="1" parent="1" source="C5i6v7xtvxDd-QpiHmQA-350" target="LcZc_sEwQm5LV-d36QQi-19">
          <mxGeometry relative="1" as="geometry">
            <Array as="points">
              <mxPoint x="2058" y="27" />
            </Array>
          </mxGeometry>
        </mxCell>
        <mxCell id="C5i6v7xtvxDd-QpiHmQA-350" value="Precio debe ser mayor a 0" style="strokeWidth=2;html=1;shape=mxgraph.flowchart.display;whiteSpace=wrap;" vertex="1" parent="1">
          <mxGeometry x="2007.5" y="91.99999999999997" width="100" height="60" as="geometry" />
        </mxCell>
        <mxCell id="C5i6v7xtvxDd-QpiHmQA-351" style="edgeStyle=orthogonalEdgeStyle;rounded=0;orthogonalLoop=1;jettySize=auto;html=1;exitX=1;exitY=0.5;exitDx=0;exitDy=0;exitPerimeter=0;entryX=0;entryY=0.5;entryDx=0;entryDy=0;entryPerimeter=0;" edge="1" parent="1" source="C5i6v7xtvxDd-QpiHmQA-349" target="C5i6v7xtvxDd-QpiHmQA-350">
          <mxGeometry relative="1" as="geometry" />
        </mxCell>
        <mxCell id="C5i6v7xtvxDd-QpiHmQA-352" value="True" style="edgeLabel;html=1;align=center;verticalAlign=middle;resizable=0;points=[];" vertex="1" connectable="0" parent="C5i6v7xtvxDd-QpiHmQA-351">
          <mxGeometry x="-0.4857" relative="1" as="geometry">
            <mxPoint as="offset" />
          </mxGeometry>
        </mxCell>
        <mxCell id="C5i6v7xtvxDd-QpiHmQA-360" value="Cantidad&amp;lt;=0" style="strokeWidth=2;html=1;shape=mxgraph.flowchart.decision;whiteSpace=wrap;" vertex="1" parent="1">
          <mxGeometry x="1840" y="375" width="100" height="100" as="geometry" />
        </mxCell>
        <mxCell id="C5i6v7xtvxDd-QpiHmQA-365" style="edgeStyle=orthogonalEdgeStyle;rounded=0;orthogonalLoop=1;jettySize=auto;html=1;exitX=0.5;exitY=0;exitDx=0;exitDy=0;exitPerimeter=0;entryX=1;entryY=0.5;entryDx=0;entryDy=0;" edge="1" parent="1" source="C5i6v7xtvxDd-QpiHmQA-361" target="LcZc_sEwQm5LV-d36QQi-21">
          <mxGeometry relative="1" as="geometry">
            <Array as="points">
              <mxPoint x="2050" y="330" />
            </Array>
          </mxGeometry>
        </mxCell>
        <mxCell id="C5i6v7xtvxDd-QpiHmQA-361" value="Cantidad debe ser mayor a 0" style="strokeWidth=2;html=1;shape=mxgraph.flowchart.display;whiteSpace=wrap;" vertex="1" parent="1">
          <mxGeometry x="1990" y="395" width="120" height="60" as="geometry" />
        </mxCell>
        <mxCell id="C5i6v7xtvxDd-QpiHmQA-362" style="edgeStyle=orthogonalEdgeStyle;rounded=0;orthogonalLoop=1;jettySize=auto;html=1;exitX=1;exitY=0.5;exitDx=0;exitDy=0;exitPerimeter=0;entryX=0;entryY=0.5;entryDx=0;entryDy=0;entryPerimeter=0;" edge="1" parent="1" source="C5i6v7xtvxDd-QpiHmQA-360" target="C5i6v7xtvxDd-QpiHmQA-361">
          <mxGeometry relative="1" as="geometry" />
        </mxCell>
        <mxCell id="C5i6v7xtvxDd-QpiHmQA-363" value="True" style="edgeLabel;html=1;align=center;verticalAlign=middle;resizable=0;points=[];" vertex="1" connectable="0" parent="C5i6v7xtvxDd-QpiHmQA-362">
          <mxGeometry x="-0.4857" relative="1" as="geometry">
            <mxPoint as="offset" />
          </mxGeometry>
        </mxCell>
        <mxCell id="C5i6v7xtvxDd-QpiHmQA-366" value="Tiempo&amp;lt;=0" style="strokeWidth=2;html=1;shape=mxgraph.flowchart.decision;whiteSpace=wrap;" vertex="1" parent="1">
          <mxGeometry x="1835" y="585" width="100" height="100" as="geometry" />
        </mxCell>
        <mxCell id="C5i6v7xtvxDd-QpiHmQA-370" style="edgeStyle=orthogonalEdgeStyle;rounded=0;orthogonalLoop=1;jettySize=auto;html=1;entryX=1;entryY=0.5;entryDx=0;entryDy=0;" edge="1" parent="1" source="C5i6v7xtvxDd-QpiHmQA-367" target="LcZc_sEwQm5LV-d36QQi-22">
          <mxGeometry relative="1" as="geometry">
            <Array as="points">
              <mxPoint x="2058" y="540" />
            </Array>
          </mxGeometry>
        </mxCell>
        <mxCell id="C5i6v7xtvxDd-QpiHmQA-367" value="Tiempo debe ser mayor a 0" style="strokeWidth=2;html=1;shape=mxgraph.flowchart.display;whiteSpace=wrap;" vertex="1" parent="1">
          <mxGeometry x="1995" y="605" width="125" height="60" as="geometry" />
        </mxCell>
        <mxCell id="C5i6v7xtvxDd-QpiHmQA-368" style="edgeStyle=orthogonalEdgeStyle;rounded=0;orthogonalLoop=1;jettySize=auto;html=1;exitX=1;exitY=0.5;exitDx=0;exitDy=0;exitPerimeter=0;entryX=0;entryY=0.5;entryDx=0;entryDy=0;entryPerimeter=0;" edge="1" parent="1" source="C5i6v7xtvxDd-QpiHmQA-366" target="C5i6v7xtvxDd-QpiHmQA-367">
          <mxGeometry relative="1" as="geometry" />
        </mxCell>
        <mxCell id="C5i6v7xtvxDd-QpiHmQA-369" value="True" style="edgeLabel;html=1;align=center;verticalAlign=middle;resizable=0;points=[];" vertex="1" connectable="0" parent="C5i6v7xtvxDd-QpiHmQA-368">
          <mxGeometry x="-0.4857" relative="1" as="geometry">
            <mxPoint as="offset" />
          </mxGeometry>
        </mxCell>
        <mxCell id="C5i6v7xtvxDd-QpiHmQA-371" style="edgeStyle=orthogonalEdgeStyle;rounded=0;orthogonalLoop=1;jettySize=auto;html=1;exitX=0.5;exitY=1;exitDx=0;exitDy=0;entryX=0.5;entryY=0;entryDx=0;entryDy=0;entryPerimeter=0;" edge="1" parent="1" source="LcZc_sEwQm5LV-d36QQi-22" target="C5i6v7xtvxDd-QpiHmQA-366">
          <mxGeometry relative="1" as="geometry" />
        </mxCell>
        <mxCell id="C5i6v7xtvxDd-QpiHmQA-379" style="edgeStyle=orthogonalEdgeStyle;rounded=0;orthogonalLoop=1;jettySize=auto;html=1;exitX=0.5;exitY=1;exitDx=0;exitDy=0;exitPerimeter=0;entryX=0.5;entryY=0;entryDx=0;entryDy=0;" edge="1" parent="1" source="C5i6v7xtvxDd-QpiHmQA-374" target="C5i6v7xtvxDd-QpiHmQA-376">
          <mxGeometry relative="1" as="geometry" />
        </mxCell>
        <mxCell id="C5i6v7xtvxDd-QpiHmQA-374" value="Tiempo disponible: &lt;br&gt;Recursos disponibles: &lt;br&gt;--Demanda genera-- " style="strokeWidth=2;html=1;shape=mxgraph.flowchart.display;whiteSpace=wrap;" vertex="1" parent="1">
          <mxGeometry x="3150" y="1060" width="170" height="90" as="geometry" />
        </mxCell>
        <mxCell id="C5i6v7xtvxDd-QpiHmQA-375" style="edgeStyle=orthogonalEdgeStyle;rounded=0;orthogonalLoop=1;jettySize=auto;html=1;entryX=0.5;entryY=0;entryDx=0;entryDy=0;entryPerimeter=0;" edge="1" parent="1" source="C5i6v7xtvxDd-QpiHmQA-280" target="C5i6v7xtvxDd-QpiHmQA-374">
          <mxGeometry relative="1" as="geometry" />
        </mxCell>
        <mxCell id="C5i6v7xtvxDd-QpiHmQA-380" value="" style="edgeStyle=orthogonalEdgeStyle;rounded=0;orthogonalLoop=1;jettySize=auto;html=1;" edge="1" parent="1" source="C5i6v7xtvxDd-QpiHmQA-376" target="C5i6v7xtvxDd-QpiHmQA-377">
          <mxGeometry relative="1" as="geometry" />
        </mxCell>
        <mxCell id="C5i6v7xtvxDd-QpiHmQA-376" value="tiempoAcumulado += productos[i].tiempoFabricacion * productos[i].cantidad" style="rounded=1;whiteSpace=wrap;html=1;absoluteArcSize=1;arcSize=14;strokeWidth=2;" vertex="1" parent="1">
          <mxGeometry x="3135" y="1190" width="200" height="100" as="geometry" />
        </mxCell>
        <mxCell id="C5i6v7xtvxDd-QpiHmQA-381" style="edgeStyle=orthogonalEdgeStyle;rounded=0;orthogonalLoop=1;jettySize=auto;html=1;entryX=0.5;entryY=1;entryDx=0;entryDy=0;" edge="1" parent="1" source="C5i6v7xtvxDd-QpiHmQA-377" target="C5i6v7xtvxDd-QpiHmQA-378">
          <mxGeometry relative="1" as="geometry">
            <Array as="points">
              <mxPoint x="3235" y="1450" />
              <mxPoint x="3470" y="1450" />
            </Array>
          </mxGeometry>
        </mxCell>
        <mxCell id="C5i6v7xtvxDd-QpiHmQA-377" value="recursosAcumulados += productos[i].CantidadRecursos * productos[i].cantidad" style="rounded=1;whiteSpace=wrap;html=1;absoluteArcSize=1;arcSize=14;strokeWidth=2;" vertex="1" parent="1">
          <mxGeometry x="3135" y="1320" width="200" height="100" as="geometry" />
        </mxCell>
        <mxCell id="C5i6v7xtvxDd-QpiHmQA-382" style="edgeStyle=orthogonalEdgeStyle;rounded=0;orthogonalLoop=1;jettySize=auto;html=1;" edge="1" parent="1" source="C5i6v7xtvxDd-QpiHmQA-378">
          <mxGeometry relative="1" as="geometry">
            <mxPoint x="3240" y="1170" as="targetPoint" />
            <Array as="points">
              <mxPoint x="3470" y="1170" />
            </Array>
          </mxGeometry>
        </mxCell>
        <mxCell id="C5i6v7xtvxDd-QpiHmQA-378" value="for (int i = 0; i &amp;lt; cantidad; i++)" style="rounded=1;whiteSpace=wrap;html=1;absoluteArcSize=1;arcSize=14;strokeWidth=2;" vertex="1" parent="1">
          <mxGeometry x="3420" y="1250" width="100" height="100" as="geometry" />
        </mxCell>
        <mxCell id="C5i6v7xtvxDd-QpiHmQA-383" value="Tiempo total requerido: " style="strokeWidth=2;html=1;shape=mxgraph.flowchart.display;whiteSpace=wrap;" vertex="1" parent="1">
          <mxGeometry x="3185" y="1490" width="100" height="60" as="geometry" />
        </mxCell>
        <mxCell id="C5i6v7xtvxDd-QpiHmQA-384" style="edgeStyle=orthogonalEdgeStyle;rounded=0;orthogonalLoop=1;jettySize=auto;html=1;entryX=0.5;entryY=0;entryDx=0;entryDy=0;entryPerimeter=0;" edge="1" parent="1" source="C5i6v7xtvxDd-QpiHmQA-377" target="C5i6v7xtvxDd-QpiHmQA-383">
          <mxGeometry relative="1" as="geometry" />
        </mxCell>
        <mxCell id="C5i6v7xtvxDd-QpiHmQA-385" value="tiempoAcumulado &amp;lt;= tiempoDisponible" style="strokeWidth=2;html=1;shape=mxgraph.flowchart.decision;whiteSpace=wrap;" vertex="1" parent="1">
          <mxGeometry x="3152.5" y="1590" width="165" height="140" as="geometry" />
        </mxCell>
        <mxCell id="C5i6v7xtvxDd-QpiHmQA-386" style="edgeStyle=orthogonalEdgeStyle;rounded=0;orthogonalLoop=1;jettySize=auto;html=1;entryX=0.5;entryY=0;entryDx=0;entryDy=0;entryPerimeter=0;" edge="1" parent="1" source="C5i6v7xtvxDd-QpiHmQA-383" target="C5i6v7xtvxDd-QpiHmQA-385">
          <mxGeometry relative="1" as="geometry" />
        </mxCell>
        <mxCell id="C5i6v7xtvxDd-QpiHmQA-387" value="No se cumple con la demanda de tiempo. Excede por %d horas." style="strokeWidth=2;html=1;shape=mxgraph.flowchart.display;whiteSpace=wrap;" vertex="1" parent="1">
          <mxGeometry x="2960" y="1717.5" width="160" height="95" as="geometry" />
        </mxCell>
        <mxCell id="C5i6v7xtvxDd-QpiHmQA-388" value="Se cumple con la demanda de tiempo." style="strokeWidth=2;html=1;shape=mxgraph.flowchart.display;whiteSpace=wrap;" vertex="1" parent="1">
          <mxGeometry x="3340" y="1720" width="140" height="90" as="geometry" />
        </mxCell>
        <mxCell id="C5i6v7xtvxDd-QpiHmQA-389" style="edgeStyle=orthogonalEdgeStyle;rounded=0;orthogonalLoop=1;jettySize=auto;html=1;entryX=0.5;entryY=0;entryDx=0;entryDy=0;entryPerimeter=0;" edge="1" parent="1" source="C5i6v7xtvxDd-QpiHmQA-385" target="C5i6v7xtvxDd-QpiHmQA-387">
          <mxGeometry relative="1" as="geometry" />
        </mxCell>
        <mxCell id="C5i6v7xtvxDd-QpiHmQA-392" value="False" style="edgeLabel;html=1;align=center;verticalAlign=middle;resizable=0;points=[];" vertex="1" connectable="0" parent="C5i6v7xtvxDd-QpiHmQA-389">
          <mxGeometry x="0.5088" y="-1" relative="1" as="geometry">
            <mxPoint as="offset" />
          </mxGeometry>
        </mxCell>
        <mxCell id="C5i6v7xtvxDd-QpiHmQA-390" style="edgeStyle=orthogonalEdgeStyle;rounded=0;orthogonalLoop=1;jettySize=auto;html=1;entryX=0.5;entryY=0;entryDx=0;entryDy=0;entryPerimeter=0;" edge="1" parent="1" source="C5i6v7xtvxDd-QpiHmQA-385" target="C5i6v7xtvxDd-QpiHmQA-388">
          <mxGeometry relative="1" as="geometry" />
        </mxCell>
        <mxCell id="C5i6v7xtvxDd-QpiHmQA-391" value="true" style="edgeLabel;html=1;align=center;verticalAlign=middle;resizable=0;points=[];" vertex="1" connectable="0" parent="C5i6v7xtvxDd-QpiHmQA-390">
          <mxGeometry x="0.5368" y="-1" relative="1" as="geometry">
            <mxPoint y="1" as="offset" />
          </mxGeometry>
        </mxCell>
        <mxCell id="C5i6v7xtvxDd-QpiHmQA-394" value="Recursos totales requeridos" style="strokeWidth=2;html=1;shape=mxgraph.flowchart.display;whiteSpace=wrap;" vertex="1" parent="1">
          <mxGeometry x="3167.5" y="1830" width="115" height="60" as="geometry" />
        </mxCell>
        <mxCell id="C5i6v7xtvxDd-QpiHmQA-395" value="recursosAcumulados &amp;lt;= recursosDisponibles" style="strokeWidth=2;html=1;shape=mxgraph.flowchart.decision;whiteSpace=wrap;" vertex="1" parent="1">
          <mxGeometry x="3142.5" y="1930" width="165" height="140" as="geometry" />
        </mxCell>
        <mxCell id="C5i6v7xtvxDd-QpiHmQA-396" style="edgeStyle=orthogonalEdgeStyle;rounded=0;orthogonalLoop=1;jettySize=auto;html=1;entryX=0.5;entryY=0;entryDx=0;entryDy=0;entryPerimeter=0;" edge="1" parent="1" source="C5i6v7xtvxDd-QpiHmQA-394" target="C5i6v7xtvxDd-QpiHmQA-395">
          <mxGeometry relative="1" as="geometry" />
        </mxCell>
        <mxCell id="C5i6v7xtvxDd-QpiHmQA-397" value="No se cumple con la demanda de recursos. Excede por %d unidades." style="strokeWidth=2;html=1;shape=mxgraph.flowchart.display;whiteSpace=wrap;" vertex="1" parent="1">
          <mxGeometry x="2950" y="2057.5" width="160" height="95" as="geometry" />
        </mxCell>
        <mxCell id="C5i6v7xtvxDd-QpiHmQA-398" value="Se cumple con la demanda de recursos." style="strokeWidth=2;html=1;shape=mxgraph.flowchart.display;whiteSpace=wrap;" vertex="1" parent="1">
          <mxGeometry x="3330" y="2060" width="140" height="90" as="geometry" />
        </mxCell>
        <mxCell id="C5i6v7xtvxDd-QpiHmQA-399" style="edgeStyle=orthogonalEdgeStyle;rounded=0;orthogonalLoop=1;jettySize=auto;html=1;entryX=0.5;entryY=0;entryDx=0;entryDy=0;entryPerimeter=0;" edge="1" parent="1" source="C5i6v7xtvxDd-QpiHmQA-395" target="C5i6v7xtvxDd-QpiHmQA-397">
          <mxGeometry relative="1" as="geometry" />
        </mxCell>
        <mxCell id="C5i6v7xtvxDd-QpiHmQA-400" value="False" style="edgeLabel;html=1;align=center;verticalAlign=middle;resizable=0;points=[];" vertex="1" connectable="0" parent="C5i6v7xtvxDd-QpiHmQA-399">
          <mxGeometry x="0.5088" y="-1" relative="1" as="geometry">
            <mxPoint as="offset" />
          </mxGeometry>
        </mxCell>
        <mxCell id="C5i6v7xtvxDd-QpiHmQA-401" style="edgeStyle=orthogonalEdgeStyle;rounded=0;orthogonalLoop=1;jettySize=auto;html=1;entryX=0.5;entryY=0;entryDx=0;entryDy=0;entryPerimeter=0;" edge="1" parent="1" source="C5i6v7xtvxDd-QpiHmQA-395" target="C5i6v7xtvxDd-QpiHmQA-398">
          <mxGeometry relative="1" as="geometry" />
        </mxCell>
        <mxCell id="C5i6v7xtvxDd-QpiHmQA-402" value="true" style="edgeLabel;html=1;align=center;verticalAlign=middle;resizable=0;points=[];" vertex="1" connectable="0" parent="C5i6v7xtvxDd-QpiHmQA-401">
          <mxGeometry x="0.5368" y="-1" relative="1" as="geometry">
            <mxPoint y="1" as="offset" />
          </mxGeometry>
        </mxCell>
        <mxCell id="C5i6v7xtvxDd-QpiHmQA-403" style="edgeStyle=orthogonalEdgeStyle;rounded=0;orthogonalLoop=1;jettySize=auto;html=1;entryX=0.5;entryY=0;entryDx=0;entryDy=0;entryPerimeter=0;" edge="1" parent="1" source="C5i6v7xtvxDd-QpiHmQA-387" target="C5i6v7xtvxDd-QpiHmQA-394">
          <mxGeometry relative="1" as="geometry" />
        </mxCell>
        <mxCell id="C5i6v7xtvxDd-QpiHmQA-404" style="edgeStyle=orthogonalEdgeStyle;rounded=0;orthogonalLoop=1;jettySize=auto;html=1;entryX=0.5;entryY=0;entryDx=0;entryDy=0;entryPerimeter=0;" edge="1" parent="1" source="C5i6v7xtvxDd-QpiHmQA-388" target="C5i6v7xtvxDd-QpiHmQA-394">
          <mxGeometry relative="1" as="geometry" />
        </mxCell>
      </root>
    </mxGraphModel>
  </diagram>
</mxfile>
